<svg width="40" height="40" viewBox="0 0 40 40" fill="none" xmlns="http://www.w3.org/2000/svg">
<path d="M8.33301 11.6667V10C8.33301 10 8.33301 6.72972 19.6703 6.66758M8.33301 11.6667V20M8.33301 11.6667H18.333M8.33301 20V30C8.33301 30.9205 9.0792 31.6667 9.99967 31.6667M8.33301 20H22.8033M9.99967 31.6667V34.8334C9.99967 34.9254 10.0743 35 10.1663 35H11.4997C11.5917 35 11.6663 34.9254 11.6663 34.8334V31.6667M9.99967 31.6667H11.6663M11.6663 31.6667H28.333M28.333 31.6667V34.8334C28.333 34.9254 28.4076 35 28.4997 35H29.833C29.9251 35 29.9997 34.9254 29.9997 34.8334V31.6667M28.333 31.6667H29.9997M29.9997 31.6667C30.9201 31.6667 31.6663 30.9205 31.6663 30V21.0977M18.333 11.6667C18.333 9.84562 18.8198 8.13825 19.6703 6.66758M18.333 11.6667C18.333 15.145 20.1089 18.2085 22.8033 20M28.333 5.83335V11.6667L32.4997 15.8334M19.6703 6.66758C21.3992 3.67808 24.6312 1.66669 28.333 1.66669C33.8559 1.66669 38.333 6.14384 38.333 11.6667C38.333 16.0207 35.5503 19.7249 31.6663 21.0977M31.6663 21.0977C30.6237 21.4662 29.5018 21.6667 28.333 21.6667C26.2884 21.6667 24.3872 21.0531 22.8033 20" stroke="white" stroke-width="3.33333"/>
<path d="M16.667 25.8333C16.667 27.214 15.5477 28.3333 14.167 28.3333C12.7863 28.3333 11.667 27.214 11.667 25.8333C11.667 24.4526 12.7863 23.3333 14.167 23.3333C15.5477 23.3333 16.667 24.4526 16.667 25.8333Z" fill="white"/>
<path d="M28.3337 25.8333C28.3337 27.214 27.2144 28.3333 25.8337 28.3333C24.4529 28.3333 23.3337 27.214 23.3337 25.8333C23.3337 24.4526 24.4529 23.3333 25.8337 23.3333C27.2144 23.3333 28.3337 24.4526 28.3337 25.8333Z" fill="white"/>
</svg>
