<svg width="34" height="29" viewBox="0 0 34 29" fill="none" xmlns="http://www.w3.org/2000/svg">
<path d="M31.2065 15.8724L32.7973 16.3695L32.7973 16.3695L31.2065 15.8724ZM28.9135 23.2102L27.3227 22.713L27.3227 22.713L28.9135 23.2102ZM11.1667 9.4271L12.3651 10.5853L11.9159 11.0502L11.2706 11.0905L11.1667 9.4271ZM17.6839 2.68356L16.4855 1.52533L16.4855 1.52532L17.6839 2.68356ZM20.3333 9.16669L20.4992 10.8251C19.9084 10.8842 19.3308 10.6245 18.9828 10.1434C18.6349 9.66225 18.5692 9.03236 18.8103 8.48979L20.3333 9.16669ZM25.3342 8.6666L25.1683 7.00821L25.1683 7.00821L25.3342 8.6666ZM22.6251 4.01025L24.1481 4.68715L24.1481 4.68715L22.6251 4.01025ZM3.5627 9.90235L3.45874 8.23893L3.45874 8.23893L3.5627 9.90235ZM30.5244 11.12L31.9112 10.1955L31.9112 10.1955L30.5244 11.12ZM0.333333 25V11.5658H3.66667V25H0.333333ZM32.7973 16.3695L30.5043 23.7073L27.3227 22.713L29.6157 15.3753L32.7973 16.3695ZM9.96822 8.26887L16.4855 1.52533L18.8824 3.84179L12.3651 10.5853L9.96822 8.26887ZM20.0808 2.09808e-05H21.1021V3.33335H20.0808V2.09808e-05ZM20.1675 7.50829L25.1683 7.00821L25.5 10.325L20.4992 10.8251L20.1675 7.50829ZM24.1481 4.68715L21.8564 9.84358L18.8103 8.48979L21.1021 3.33335L24.1481 4.68715ZM3.45874 8.23893L10.2294 7.81577L10.4373 11.1426L3.66667 11.5658L3.45874 8.23893ZM10.2294 7.81577L11.0627 7.76368L11.2706 11.0905L10.4373 11.1426L10.2294 7.81577ZM24.212 28.3334H10.3333V25H24.212V28.3334ZM10.3333 28.3334H3.66667V25H10.3333V28.3334ZM12 9.47919V26.6667H8.66667V9.47919H12ZM21.1021 2.09808e-05C23.5143 2.09808e-05 25.1278 2.48286 24.1481 4.68715L21.1021 3.33335L21.1021 3.33335V2.09808e-05ZM16.4855 1.52532C17.4276 0.550505 18.7251 2.09808e-05 20.0808 2.09808e-05V3.33335C19.6289 3.33335 19.1964 3.51685 18.8824 3.84179L16.4855 1.52532ZM30.5043 23.7073C29.6442 26.4595 27.0954 28.3334 24.212 28.3334V25C25.6374 25 26.8975 24.0736 27.3227 22.713L30.5043 23.7073ZM31.9112 10.1955C33.1236 12.0141 33.4493 14.2833 32.7973 16.3695L29.6157 15.3753C29.9675 14.2498 29.7918 13.0256 29.1377 12.0445L31.9112 10.1955ZM29.1377 12.0445C28.3365 10.8427 26.9373 10.1813 25.5 10.325L25.1683 7.00821C27.8324 6.7418 30.426 7.96775 31.9112 10.1955L29.1377 12.0445ZM0.333333 11.5658C0.333333 9.80556 1.70196 8.34873 3.45874 8.23893L3.66667 11.5658L3.66667 11.5658H0.333333ZM3.66667 25H3.66667V28.3334C1.82572 28.3334 0.333333 26.841 0.333333 25H3.66667Z" fill="white"/>
</svg>
