<svg width="40" height="40" viewBox="0 0 40 40" fill="none" xmlns="http://www.w3.org/2000/svg">
<path d="M20 40C31.0457 40 40 31.0457 40 20C40 8.9543 31.0457 0 20 0C8.9543 0 0 8.9543 0 20C0 31.0457 8.9543 40 20 40Z" fill="url(#paint0_linear_205_2497)"/>
<path d="M16.3337 29.1668C15.6857 29.1668 15.7958 28.9222 15.5724 28.3052L13.667 22.0345L28.3337 13.3335" fill="#C8DAEA"/>
<path d="M16.333 29.1667C16.833 29.1667 17.0539 28.938 17.333 28.6667L19.9997 26.0737L16.6733 24.0679" fill="#A9C9DD"/>
<path d="M16.6735 24.0681L24.7335 30.0229C25.6533 30.5304 26.3171 30.2676 26.5462 29.169L29.827 13.7085C30.1629 12.3618 29.3137 11.751 28.4338 12.1505L9.16879 19.579C7.85378 20.1064 7.86144 20.8401 8.92909 21.167L13.8729 22.71L25.3184 15.4892C25.8587 15.1615 26.3546 15.3377 25.9476 15.6989" fill="url(#paint1_linear_205_2497)"/>
<defs>
<linearGradient id="paint0_linear_205_2497" x1="15.002" y1="1.668" x2="5.002" y2="25" gradientUnits="userSpaceOnUse">
<stop stop-color="#37AEE2"/>
<stop offset="1" stop-color="#1E96C8"/>
</linearGradient>
<linearGradient id="paint1_linear_205_2497" x1="17.4965" y1="21.2283" x2="19.6335" y2="28.1407" gradientUnits="userSpaceOnUse">
<stop stop-color="#EFF7FC"/>
<stop offset="1" stop-color="white"/>
</linearGradient>
</defs>
</svg>
