<svg width="41" height="40" viewBox="0 0 41 40" fill="none" xmlns="http://www.w3.org/2000/svg">
<path d="M20.8574 40C31.9031 40 40.8574 31.0457 40.8574 20C40.8574 8.9543 31.9031 0 20.8574 0C9.81173 0 0.857422 8.9543 0.857422 20C0.857422 31.0457 9.81173 40 20.8574 40Z" fill="#25D366"/>
<path fill-rule="evenodd" clip-rule="evenodd" d="M21.517 31.1268H21.5121C19.5217 31.1261 17.5659 30.6267 15.8289 29.6792L9.52441 31.333L11.2116 25.1704C10.1709 23.3668 9.62323 21.3209 9.62412 19.2249C9.62673 12.6678 14.9618 7.33301 21.5169 7.33301C24.6983 7.33438 27.6843 8.5729 29.9296 10.8209C32.1749 13.0687 33.4108 16.0566 33.4095 19.2343C33.4069 25.7899 28.074 31.1241 21.517 31.1268ZM16.1207 27.5258L16.4817 27.7401C17.9993 28.6407 19.739 29.1172 21.5127 29.1179H21.5168C26.9649 29.1179 31.3991 24.6836 31.4013 19.2332C31.4023 16.592 30.3752 14.1085 28.5089 12.2401C26.6427 10.3717 24.1608 9.34222 21.5206 9.34131C16.0683 9.34131 11.634 13.7752 11.6318 19.2252C11.6311 21.0929 12.1537 22.9119 13.1431 24.4856L13.3782 24.8596L12.3796 28.5072L16.1207 27.5258ZM27.101 21.7948C27.3083 21.895 27.4483 21.9626 27.508 22.0624C27.5823 22.1863 27.5823 22.7813 27.3348 23.4755C27.0871 24.1696 25.8999 24.8031 25.3289 24.8884C24.817 24.9649 24.1692 24.9969 23.4573 24.7706C23.0257 24.6337 22.4723 24.4509 21.7633 24.1447C18.9775 22.9418 17.0949 20.2418 16.7391 19.7315C16.7142 19.6957 16.6967 19.6707 16.687 19.6577L16.6846 19.6545C16.5273 19.4447 15.4736 18.0388 15.4736 16.5838C15.4736 15.215 16.146 14.4975 16.4555 14.1673C16.4767 14.1447 16.4962 14.1239 16.5137 14.1048C16.786 13.8073 17.108 13.7329 17.3061 13.7329C17.5041 13.7329 17.7025 13.7347 17.8756 13.7434C17.897 13.7445 17.9192 13.7444 17.9422 13.7442C18.1153 13.7432 18.3312 13.742 18.5442 14.2535C18.6261 14.4504 18.746 14.7423 18.8724 15.0501C19.1281 15.6726 19.4107 16.3604 19.4604 16.46C19.5347 16.6087 19.5842 16.7822 19.4851 16.9806C19.4703 17.0103 19.4565 17.0384 19.4434 17.0652C19.369 17.2171 19.3143 17.3288 19.188 17.4763C19.1384 17.5342 19.087 17.5967 19.0357 17.6592C18.9335 17.7837 18.8313 17.9082 18.7423 17.9969C18.5935 18.1451 18.4386 18.3058 18.612 18.6033C18.7853 18.9008 19.3817 19.8739 20.2651 20.6619C21.2147 21.5089 22.04 21.8669 22.4584 22.0483C22.54 22.0838 22.6062 22.1125 22.6548 22.1368C22.9518 22.2856 23.1252 22.2607 23.2985 22.0624C23.4719 21.8641 24.0413 21.1947 24.2394 20.8972C24.4375 20.5998 24.6357 20.6494 24.908 20.7485C25.1804 20.8478 26.6414 21.5666 26.9385 21.7153C26.9965 21.7443 27.0508 21.7705 27.101 21.7948Z" fill="#FDFDFD"/>
</svg>
