<svg width="110" height="98" viewBox="0 0 110 98" fill="none" xmlns="http://www.w3.org/2000/svg">
<path d="M56.1473 31.6508V30.8941H38.0809L37.7972 36.9478H39.0268L40.9659 32.2656H48.2492V62.4866L45.1751 63.2433V64H59.2687C62.9104 64 65.8426 63.196 68.0654 61.5407C70.2882 59.8854 71.4233 57.6626 71.4233 54.8249C71.4233 51.9873 70.2882 49.7645 68.0654 48.1092C65.8426 46.4539 62.9104 45.6499 59.2687 45.6499H53.0732V32.5021L56.1473 31.6508ZM53.0732 46.9741H58.4647C63.2414 46.9741 66.4101 49.7645 66.4101 54.8249C66.4101 59.8854 63.2414 62.7231 58.4647 62.7231H53.0732V46.9741Z" fill="black"/>
<path d="M38.677 89.9184C38.3977 89.9148 38.1005 89.9327 37.7818 89.9757C37.6995 89.99 37.6171 90.0008 37.5383 90.0151C37.456 90.0258 37.3808 90.0402 37.2913 90.0545C37.1265 90.0867 36.9582 90.1261 36.7828 90.1726C36.0881 90.3624 35.3325 90.6668 34.5734 91.0177C33.8286 91.3472 33.0766 91.7124 32.4034 92.0598C31.7302 92.4035 31.1358 92.7365 30.7132 92.9585C30.2943 93.1806 30.04 93.3238 30.04 93.3238C30.04 93.3238 30.1081 93.3489 30.237 93.399C30.3659 93.442 30.5485 93.5136 30.7849 93.578C31.2575 93.7141 31.92 93.8896 32.672 94.04C32.8617 94.0794 33.0479 94.1187 33.2485 94.1474C33.4526 94.176 33.6567 94.1975 33.8644 94.2226C34.2798 94.2656 34.7023 94.3014 35.1213 94.3085C35.9628 94.3443 36.8078 94.2405 37.5347 94.04C38.9922 93.6425 39.9769 92.7473 40.5892 92.0025C41.2051 91.2541 41.4665 90.6274 41.4665 90.6274C41.4665 90.6274 40.9688 90.3051 40.138 90.1118C39.7262 90.0151 39.2356 89.9184 38.677 89.9184Z" fill="#F19F00"/>
<path d="M40.9041 84.1357C40.5639 83.595 40.1163 83.1223 39.6544 82.6604C39.4252 82.4312 39.1817 82.2235 38.9382 82.0266C38.8129 81.9263 38.6947 81.8332 38.5837 81.7437C38.4691 81.647 38.3509 81.5575 38.2435 81.4715C37.7923 81.1242 37.3841 80.8449 37.0869 80.6623C36.7897 80.4582 36.6106 80.3472 36.6106 80.3472C36.6106 80.3472 36.6071 80.6086 36.625 81.0418C36.6393 81.4787 36.6823 82.0588 36.7789 82.7248C36.8756 83.3945 37.0153 84.1393 37.2301 84.8698C37.445 85.5752 37.7422 86.2627 38.0967 86.8285C38.1791 86.9717 38.2757 87.1078 38.3724 87.2331C38.419 87.2976 38.4691 87.3549 38.5192 87.4122C38.5694 87.4695 38.6159 87.5232 38.6661 87.5769C38.8737 87.7846 39.0958 87.9636 39.3142 88.114C39.529 88.268 39.751 88.3969 39.9659 88.4972C40.1772 88.601 40.3813 88.6905 40.5818 88.7443C41.3696 88.9698 41.9461 88.9305 41.9461 88.9305C41.9461 88.9305 42.0428 88.2537 41.9425 87.3227C41.896 86.8536 41.81 86.3272 41.6453 85.7865C41.5988 85.6504 41.5558 85.5107 41.5057 85.3783C41.4591 85.2386 41.4018 85.0918 41.3409 84.9557C41.212 84.6836 41.0724 84.4007 40.9041 84.1357Z" fill="#F19F00"/>
<path d="M29.6534 85.7362C29.6032 85.6897 29.528 85.6288 29.4385 85.5429C29.2523 85.3817 28.9694 85.1633 28.6042 84.9556C28.418 84.8518 28.2175 84.7515 27.9883 84.6584C27.7591 84.5653 27.5049 84.4829 27.2435 84.397C26.7099 84.2394 26.0833 84.1463 25.3564 84.1571C24.984 84.1678 24.6044 84.1893 24.2105 84.2251C23.8202 84.2609 23.4048 84.3182 23.0037 84.3863C22.5848 84.4543 22.173 84.5295 21.7719 84.6083C21.3745 84.6906 20.9806 84.7694 20.6117 84.8446C19.8669 85.0022 19.2152 85.1526 18.7461 85.2672C18.2663 85.3817 17.9834 85.4605 17.9834 85.4605C17.9834 85.4605 18.2269 85.6288 18.6387 85.8866C18.8392 86.0155 19.097 86.1659 19.3728 86.3271C19.5088 86.4059 19.6628 86.4918 19.8204 86.5777C19.9779 86.6601 20.1462 86.7389 20.3181 86.8248C20.6619 86.986 21.0343 87.1471 21.4138 87.3047C21.6072 87.3799 21.8006 87.455 21.9975 87.5231C22.0978 87.5625 22.1909 87.5983 22.2947 87.6305C22.3986 87.6556 22.4953 87.6878 22.5955 87.7165C23.4155 87.942 24.2427 88.0853 24.9947 88.0853C26.5273 88.0423 27.7054 87.4694 28.5003 86.9108C28.9014 86.6386 29.2093 86.3557 29.417 86.148C29.6211 85.9439 29.7286 85.8079 29.7286 85.8079C29.7286 85.8079 29.6999 85.7828 29.6534 85.7362Z" fill="#F19F00"/>
<path d="M27.5408 81.2745C27.7306 81.9011 28.0242 82.4168 28.3572 82.8321C28.5183 83.047 28.6974 83.2189 28.88 83.3657C29.0591 83.5161 29.2417 83.645 29.4136 83.756C29.7573 83.9744 30.0688 84.1105 30.2944 84.1964C30.4054 84.2394 30.5057 84.2609 30.5666 84.2788C30.6382 84.2967 30.6669 84.3039 30.6669 84.3039C30.6669 84.3039 30.7385 84.1463 30.828 83.8777C30.9175 83.6056 31.0249 83.2225 31.1109 82.7569C31.2828 81.8259 31.3615 80.6049 30.9963 79.4089C30.828 78.7929 30.5379 78.2021 30.2013 77.6578C29.8755 77.1064 29.521 76.58 29.1665 76.1431C28.9874 75.9318 28.837 75.7134 28.6831 75.5308C28.5434 75.3482 28.4038 75.187 28.2892 75.051C28.06 74.7896 27.906 74.6392 27.906 74.6392C27.906 74.6392 27.8272 74.8898 27.7341 75.3052C27.6303 75.7206 27.5085 76.3043 27.4083 76.9739C27.3617 77.3141 27.3116 77.6721 27.2865 78.041C27.265 78.4026 27.2507 78.775 27.2615 79.1475C27.265 79.5199 27.2865 79.8958 27.3295 80.2539C27.3796 80.612 27.4405 80.9665 27.5408 81.2745Z" fill="#F19F00"/>
<path d="M19.1433 77.3784C19.0036 77.1742 18.8102 76.8914 18.5166 76.5906C18.2266 76.2934 17.8434 75.9818 17.3672 75.6918C16.8981 75.3946 16.3251 75.1332 15.6269 74.9505C15.387 74.8861 15.1399 74.836 14.8821 74.7858C14.6314 74.7321 14.3736 74.6891 14.105 74.6497C12.7765 74.4492 11.269 74.3704 10.1339 74.3024C8.98798 74.238 8.16797 74.2236 8.16797 74.2236C8.16797 74.2236 8.44369 74.5746 8.92353 75.0938C9.38904 75.6202 10.1016 76.2647 10.8966 76.8949C11.0183 76.9916 11.1437 77.0811 11.2654 77.1742C11.3299 77.2208 11.3907 77.2674 11.4588 77.3139C11.5196 77.3569 11.5913 77.3998 11.6557 77.4428C11.9243 77.6147 12.1964 77.7794 12.4757 77.9298C12.755 78.0802 13.0272 78.2163 13.3101 78.3309C13.5894 78.449 13.8579 78.5529 14.1444 78.6209C15.6305 78.9897 16.9196 78.7606 17.8506 78.4383C18.7888 78.1053 19.351 77.7006 19.351 77.7006C19.351 77.7006 19.2829 77.5789 19.1433 77.3784Z" fill="#F19F00"/>
<path d="M19.6342 75.6523C19.9027 75.9531 20.1534 76.1787 20.3575 76.3112C20.558 76.4473 20.6869 76.5081 20.6869 76.5081C20.6869 76.5081 21.1309 75.9853 21.5535 75.151C21.9903 74.3059 22.4236 73.1457 22.4165 71.9032C22.42 71.4448 22.3699 70.9686 22.2768 70.5102C22.2303 70.281 22.173 70.0519 22.1121 69.8299C22.0441 69.6114 21.9903 69.3823 21.9223 69.171C21.8077 68.7986 21.6788 68.4477 21.5463 68.1325C21.5105 68.0538 21.4783 67.975 21.4532 67.8998C21.4174 67.8246 21.3923 67.7494 21.3601 67.6778C21.31 67.5345 21.2527 67.402 21.199 67.2803C20.9913 66.7933 20.8302 66.4961 20.8302 66.4961C20.8302 66.4961 20.4255 67.1084 19.9528 68.0394C19.8311 68.2722 19.7093 68.5193 19.5876 68.7914C19.5267 68.9275 19.4659 69.0671 19.405 69.2032C19.3477 69.3393 19.294 69.4825 19.2403 69.6258C19.029 70.1987 18.8356 70.811 18.7103 71.4198C18.6566 71.6561 18.6208 71.8888 18.5885 72.1144C18.5635 72.3436 18.5527 72.5585 18.5527 72.7697C18.5527 73.4286 18.6888 74.0015 18.8822 74.4885C19.0934 74.9684 19.3727 75.3515 19.6342 75.6523Z" fill="#F19F00"/>
<path d="M9.27042 67.4594C9.55689 67.4737 9.82903 67.4665 10.0833 67.4522C11.0752 67.3842 11.734 67.1514 11.734 67.1514C11.734 67.1514 11.7054 67.0082 11.6338 66.779C11.5944 66.6644 11.5443 66.5283 11.4762 66.3744C11.4189 66.2132 11.3401 66.0413 11.2506 65.8587C11.0537 65.4935 10.7851 65.0888 10.4055 64.6842C10.316 64.5947 10.2193 64.4944 10.1083 64.3798C10.0045 64.276 9.89349 64.1757 9.77532 64.079C9.53182 63.8785 9.26326 63.6852 8.95531 63.5025C8.64735 63.3199 8.30359 63.1444 7.93476 62.9761C7.58742 62.8043 7.21501 62.6395 6.83186 62.482C6.07272 62.1705 5.2742 61.8804 4.54728 61.6333C3.83828 61.3827 3.20805 61.1678 2.7497 61.021C2.28777 60.8706 2.00488 60.7847 2.00488 60.7847C2.00488 60.7847 2.11589 61.0532 2.31284 61.4829C2.4131 61.7014 2.52769 61.9592 2.68166 62.2421C2.83922 62.5214 3.01468 62.8258 3.21163 63.1444C3.41216 63.4631 3.63059 63.7926 3.86334 64.1256C3.92064 64.2044 3.98151 64.2867 4.04238 64.3691C4.11042 64.4479 4.17488 64.5267 4.23933 64.609C4.3754 64.7666 4.50789 64.9241 4.64755 65.0781C4.93043 65.3861 5.22048 65.6761 5.52127 65.9411C5.67167 66.0772 5.82207 66.1989 5.9832 66.3171C6.14434 66.4281 6.30548 66.5319 6.4702 66.6286C7.12549 67.0082 7.78079 67.2266 8.39311 67.3484C8.69748 67.4092 8.99111 67.4415 9.27042 67.4594Z" fill="#F19F00"/>
<path d="M12.2249 63.9358C12.2894 64.4443 12.4326 64.8919 12.5973 65.2571C12.6797 65.4362 12.7692 65.5973 12.8516 65.7369C12.9411 65.8766 13.0306 65.9912 13.1058 66.0807C13.2634 66.2633 13.3636 66.36 13.3636 66.36C13.3636 66.36 13.9437 65.9769 14.5919 65.2858C14.7566 65.1175 14.9213 64.9277 15.086 64.72C15.2579 64.5051 15.4298 64.276 15.5909 64.036C15.9025 63.5491 16.1854 63.0048 16.3644 62.4032C16.4074 62.2528 16.4432 62.106 16.4826 61.9484C16.5184 61.7909 16.5506 61.6333 16.5757 61.4757C16.6222 61.1606 16.658 60.8383 16.6688 60.5197C16.6759 59.8894 16.6902 59.2592 16.6437 58.7149C16.6258 58.4392 16.5936 58.1814 16.5649 57.9522C16.547 57.7194 16.5255 57.5153 16.504 57.3434C16.4647 56.9997 16.4217 56.792 16.4217 56.792C16.4217 56.792 16.2176 56.9639 15.9025 57.2647C15.5838 57.5619 15.1469 57.9916 14.6814 58.5108C14.2338 59.0229 13.7647 59.6209 13.3565 60.2583C13.1488 60.5769 12.9626 60.9028 12.7943 61.2322C12.6332 61.5581 12.5078 61.8804 12.4111 62.1991C12.3109 62.5106 12.2536 62.8186 12.2249 63.1086C12.207 63.2518 12.1963 63.3951 12.1963 63.5347C12.1963 63.6028 12.1963 63.6744 12.1999 63.7424C12.2035 63.8033 12.2142 63.8677 12.2249 63.9358Z" fill="#F19F00"/>
<path d="M3.48058 54.3536C3.76347 54.5505 4.04278 54.7117 4.33282 54.8513C4.89502 55.1235 5.45005 55.2882 5.92988 55.3885C6.90029 55.5818 7.59856 55.5281 7.59856 55.5281C7.59856 55.5281 7.68091 54.9552 7.49829 54.1566C7.45174 53.9561 7.38012 53.7413 7.31209 53.5157C7.24047 53.2901 7.14737 53.0502 7.0292 52.8031C6.90745 52.5596 6.76064 52.3089 6.57801 52.0583C6.48849 51.9294 6.38823 51.804 6.27722 51.6751C6.22709 51.6107 6.1698 51.5462 6.11609 51.4818C6.05879 51.4173 6.0015 51.3564 5.9442 51.292C4.9917 50.2643 3.45552 49.2115 2.24519 48.3557C1.62928 47.9331 1.07425 47.5679 0.662457 47.3065C0.250659 47.0451 0 46.8911 0 46.8911C0 46.8911 0.0358085 47.174 0.114587 47.6431C0.196947 48.1086 0.315114 48.7532 0.50848 49.4693C0.726912 50.1855 1.00264 50.9661 1.34998 51.7002C1.43592 51.8864 1.5326 52.069 1.64003 52.2445C1.74387 52.4164 1.84772 52.5882 1.9623 52.7565C2.18432 53.086 2.42781 53.3939 2.67847 53.6589C2.93987 53.9275 3.19411 54.1602 3.48058 54.3536Z" fill="#F19F00"/>
<path d="M9.39588 55.1915C9.39588 55.1915 10.0655 54.9695 10.8891 54.4754C11.3045 54.2247 11.7557 53.9096 12.1889 53.5264C12.4074 53.3331 12.6151 53.1254 12.8156 52.8962C13.0197 52.6706 13.2202 52.4199 13.3957 52.155C13.5676 51.8864 13.7251 51.6035 13.8576 51.3135C13.9937 51.0234 14.0904 50.7226 14.205 50.4147C14.4306 49.8095 14.5738 49.2008 14.6776 48.6672C14.8137 48.1229 14.8889 47.6431 14.939 47.3029C14.982 46.9627 14.9963 46.7515 14.9963 46.7515C14.9963 46.7515 14.7564 46.8661 14.3697 47.0702C13.9829 47.2779 13.453 47.5786 12.8657 47.9582C12.2892 48.3378 11.6375 48.7961 11.086 49.3046C10.5238 49.8095 10.0046 50.3681 9.62864 50.9267C9.43169 51.206 9.30636 51.4818 9.19893 51.7575C9.09867 52.0296 9.02705 52.2946 8.97692 52.5524C8.93037 52.8067 8.90889 53.0538 8.90531 53.2865C8.89814 53.5121 8.93037 53.7305 8.9626 53.9239C9.10583 54.7081 9.39588 55.1915 9.39588 55.1915Z" fill="#F19F00"/>
<path d="M1.96279 37.0114C2.00576 37.3158 2.06305 37.6201 2.13109 37.9209C2.27074 38.5153 2.43904 39.0811 2.71834 39.5753C3.06927 40.2306 3.50255 40.7498 3.9609 41.1652C4.42283 41.577 4.88834 41.8813 5.33594 42.1033C6.22041 42.5545 6.90793 42.687 6.90793 42.687C6.90793 42.687 6.96881 42.5545 7.0261 42.3218C7.0834 42.0854 7.17292 41.7524 7.20872 41.3442C7.24811 40.936 7.23737 40.4562 7.13711 39.919C7.04042 39.3855 6.87213 38.7982 6.54627 38.1716C6.43168 37.9639 6.31351 37.749 6.17386 37.5342C6.1094 37.4303 6.03779 37.3193 5.96617 37.2083C5.89455 37.1045 5.82652 36.9899 5.7549 36.8825C5.38607 36.3418 4.97428 35.7867 4.55532 35.2639C4.13994 34.7375 3.72456 34.2362 3.36648 33.8101C2.65389 32.9471 2.11318 32.3491 2.11318 32.3491C2.11318 32.3491 2.02724 32.786 1.94488 33.4735C1.89475 33.8173 1.87684 34.2255 1.86252 34.6695C1.8482 35.1135 1.8482 35.5969 1.86968 36.0911C1.88043 36.3919 1.91982 36.7034 1.96279 37.0114Z" fill="#F19F00"/>
<path d="M13.4425 40.9935C13.532 40.9219 13.6144 40.8395 13.6967 40.7571C13.7862 40.6748 13.8686 40.5888 13.9545 40.5029C14.1228 40.331 14.2804 40.1484 14.4236 39.9622C14.5704 39.776 14.7101 39.5862 14.8426 39.3893C14.9787 39.1852 15.1004 38.9918 15.2186 38.8127C15.4298 38.4833 15.6196 38.1539 15.7736 37.8531C15.856 37.6991 15.9312 37.5523 15.9956 37.4162C16.0565 37.2766 16.1353 37.1512 16.1926 37.0331C16.4361 36.5604 16.5578 36.2524 16.5578 36.2524C16.5578 36.2524 15.8166 36.3706 14.7674 36.6499C14.5131 36.718 14.2267 36.7967 13.9474 36.8898C13.6681 36.9794 13.3744 37.0868 13.0844 37.2014C12.4935 37.427 11.8884 37.7027 11.3298 38.0178C10.8965 38.2577 10.5277 38.5263 10.1946 38.8127C9.68974 39.2496 9.3245 39.7294 9.08458 40.1985C8.85899 40.6676 8.74082 41.1224 8.68711 41.5091C8.63339 41.9066 8.62623 42.236 8.66562 42.4724C8.69427 42.7087 8.73366 42.8448 8.73366 42.8448C8.73366 42.8448 9.43192 42.809 10.3665 42.5512C11.294 42.2969 12.4971 41.8278 13.4425 40.9935Z" fill="#F19F00"/>
<path d="M7.56676 27.909C7.8962 28.4282 8.2686 28.8543 8.62669 29.1909C9.33928 29.857 9.96592 30.1721 9.96592 30.1721C9.96592 30.1721 10.059 30.0611 10.1879 29.8534C10.3204 29.6493 10.478 29.3377 10.6355 28.9582C10.7931 28.5786 10.9328 28.1167 10.99 27.576C11.0187 27.311 11.0187 27.0138 11.0187 26.713C11.0187 26.4086 10.99 26.0863 10.9292 25.7426C10.8647 25.3988 10.7716 25.0407 10.6642 24.6683C10.6069 24.4857 10.5496 24.2923 10.4816 24.1061C10.4171 23.9199 10.3562 23.7337 10.2918 23.5439C10.034 22.792 9.72243 22.0328 9.43238 21.3489C9.28915 21.0123 9.14949 20.69 9.02416 20.3999C8.89883 20.1171 8.78425 19.8592 8.69473 19.6444C8.50494 19.2147 8.38319 18.9604 8.38319 18.9604C8.38319 18.9604 8.24354 19.2147 8.04301 19.6444C7.92842 19.8557 7.83174 20.1242 7.71357 20.4179C7.59899 20.7186 7.48082 21.0481 7.36623 21.399C7.30894 21.578 7.24806 21.7607 7.19435 21.9397C7.14422 22.1259 7.08334 22.3157 7.04754 22.5162C6.95443 22.903 6.8864 23.3112 6.83269 23.7158C6.77897 24.1204 6.74316 24.5251 6.74316 24.9118C6.74674 25.3093 6.78255 25.6924 6.85417 26.0541C6.99024 26.7739 7.25164 27.3862 7.56676 27.909Z" fill="#F19F00"/>
<path d="M17.578 29.8426C17.8609 29.6707 18.1366 29.4774 18.3944 29.2768C18.6487 29.0763 18.8886 28.865 19.1142 28.6538C19.3433 28.4497 19.5725 28.2456 19.7695 28.045C19.97 27.8481 20.1526 27.6547 20.3102 27.4828C20.389 27.3933 20.4642 27.311 20.5322 27.2322C20.6038 27.1534 20.6683 27.0889 20.7291 27.0209C20.9726 26.7631 21.1015 26.5984 21.1015 26.5984C21.1015 26.5984 20.833 26.5661 20.3854 26.5375C19.9414 26.5088 19.3075 26.4766 18.6164 26.5017C17.9218 26.5232 17.134 26.5876 16.3677 26.713C16.1743 26.7488 15.9809 26.781 15.7876 26.824C15.6049 26.8705 15.4223 26.9171 15.2469 26.9672C14.8924 27.071 14.5522 27.1928 14.2406 27.336C13.9327 27.4757 13.657 27.6332 13.4063 27.8051C13.1592 27.977 12.9659 28.1739 12.7797 28.3637C12.4287 28.7505 12.1745 29.1515 11.9955 29.5132C11.8272 29.8748 11.7591 30.2043 11.7126 30.4335C11.6696 30.6662 11.666 30.8023 11.666 30.8023C11.666 30.8023 12.3464 30.9634 13.3204 30.967C13.8074 30.9706 14.3588 30.9384 14.9425 30.8381C15.5333 30.7414 16.1457 30.5767 16.7365 30.3117C17.0265 30.1828 17.3058 30.0217 17.578 29.8426Z" fill="#F19F00"/>
<path d="M14.5127 16.6547C14.681 17.2384 14.9209 17.7433 15.168 18.1551C15.6622 18.9751 16.1706 19.4406 16.1706 19.4406C16.1706 19.4406 16.672 19.1148 17.1697 18.4559C17.295 18.2876 17.4203 18.1014 17.5385 17.8901C17.6603 17.686 17.7892 17.4604 17.893 17.2133C18.1079 16.7156 18.2654 16.1176 18.337 15.4193C18.4087 14.7318 18.3979 13.9476 18.3406 13.1455C18.2798 12.3327 18.2081 11.5413 18.1186 10.8108C18.0327 10.0839 17.9396 9.43933 17.8715 8.97024C17.7963 8.51189 17.7534 8.229 17.7534 8.229C17.7534 8.229 17.6961 8.27914 17.6101 8.3794C17.5278 8.47966 17.4024 8.62648 17.2449 8.8091C16.9405 9.18151 16.5251 9.70431 16.099 10.3202C15.6944 10.954 15.279 11.6738 14.946 12.415C14.6237 13.167 14.3981 13.9548 14.3229 14.6745C14.305 14.8571 14.2979 15.0326 14.2979 15.2045C14.2979 15.3764 14.3122 15.5518 14.3265 15.7166C14.3623 16.0496 14.4268 16.3611 14.5127 16.6547Z" fill="#F19F00"/>
<path d="M23.6229 21.0946C23.7841 21.0445 23.9344 20.9872 24.092 20.9263C24.1672 20.8977 24.2388 20.8654 24.3212 20.8368C24.4035 20.801 24.4787 20.7723 24.5504 20.7437C25.1734 20.4966 25.732 20.1958 26.2226 19.9094C26.7311 19.6408 27.1465 19.3794 27.4437 19.186C27.5869 19.0858 27.7051 18.9998 27.7839 18.9461C27.8734 18.8924 27.9163 18.8638 27.9163 18.8638C27.9163 18.8638 27.8483 18.8387 27.7373 18.7957C27.6156 18.7527 27.4508 18.6919 27.2432 18.6238C26.8242 18.4878 26.2369 18.3087 25.553 18.1476C25.2092 18.0688 24.8511 17.99 24.468 17.922C24.2782 17.8898 24.0884 17.8575 23.8986 17.8325C23.7089 17.811 23.5119 17.7895 23.3257 17.7752C22.5522 17.7071 21.7788 17.7107 21.0948 17.8217C20.4216 17.9363 19.8702 18.1726 19.4083 18.4448C19.1755 18.5809 18.9678 18.7277 18.7924 18.8817C18.6205 19.0392 18.4701 19.2004 18.3412 19.3507C17.8219 19.9702 17.6465 20.5002 17.6465 20.5002C17.6465 20.5002 18.2624 20.8296 19.2077 21.091C19.6697 21.2235 20.2211 21.3381 20.8084 21.3918C21.4028 21.4491 22.0151 21.4276 22.6704 21.331C22.9891 21.2737 23.3114 21.1949 23.6229 21.0946Z" fill="#F19F00"/>
<path d="M25.4098 9.94043C25.5315 10.2018 25.6175 10.3451 25.6175 10.3451C25.6175 10.3451 25.6569 10.3307 25.7177 10.3057C25.7822 10.2806 25.8753 10.2448 25.9863 10.1875C26.2191 10.0837 26.5306 9.91894 26.8708 9.6647C27.5261 9.14548 28.3425 8.37918 28.8617 7.06143C29.0336 6.62815 29.1947 6.15189 29.3344 5.64699C29.5063 5.01677 29.6459 4.34357 29.7748 3.69185C29.9073 3.05446 30.0219 2.43498 30.115 1.88352C30.2976 0.787786 30.3943 0 30.3943 0C30.3943 0 30.0004 0.236336 29.4203 0.644552C29.1339 0.84508 28.7937 1.09216 28.4356 1.37146C28.0847 1.66509 27.7158 1.99095 27.3542 2.34545C27.125 2.56389 26.9102 2.7859 26.7025 3.01507C26.6452 3.07237 26.5915 3.12966 26.5413 3.19053C26.4948 3.24783 26.4446 3.31228 26.3945 3.37316C26.2978 3.49491 26.2047 3.62024 26.1116 3.74556C25.7464 4.2433 25.4348 4.76253 25.2236 5.27459C25.0803 5.60402 24.9944 5.95495 24.9335 6.2808C24.8727 6.61024 24.844 6.92536 24.8404 7.23331C24.8261 7.83847 24.912 8.38276 25.0374 8.84469C25.1484 9.30304 25.2916 9.67545 25.4098 9.94043Z" fill="#F19F00"/>
<path d="M34.1832 13.7112C34.5771 13.6325 34.9495 13.5429 35.2932 13.4498C35.637 13.3711 35.9485 13.2887 36.2099 13.2135C36.7292 13.0631 37.0514 12.9342 37.0514 12.9342C37.0514 12.9342 36.4606 12.4866 35.5475 11.9387C35.0999 11.6666 34.5663 11.3694 33.9862 11.0901C33.4133 10.8215 32.8046 10.5816 32.1922 10.399C31.7231 10.2593 31.2505 10.1483 30.8064 10.1018C29.4529 9.98001 28.3822 10.3667 27.7198 10.8358C27.3796 11.065 27.1325 11.2942 26.9642 11.4625C26.8783 11.5448 26.8174 11.62 26.778 11.6702C26.7386 11.7239 26.7207 11.7525 26.7207 11.7525C26.7207 11.7525 26.8425 11.8743 27.068 12.0533C27.2936 12.2359 27.6267 12.4794 28.0456 12.7301C28.4574 12.9843 28.9516 13.2422 29.4994 13.4498C29.7787 13.5537 30.0616 13.654 30.3624 13.722C30.6632 13.7972 30.9712 13.8473 31.3006 13.8939C32.2639 14.0156 33.2593 13.8581 34.1832 13.7112Z" fill="#F19F00"/>
<path d="M48.3311 90.9321C48.0733 90.8998 47.751 90.8604 47.3822 90.8175C47.1995 90.7888 47.0062 90.7781 46.8021 90.7387C46.598 90.7029 46.3867 90.6671 46.1647 90.6241C45.7171 90.5489 45.2372 90.4701 44.718 90.377C44.2095 90.266 43.676 90.1479 43.1245 90.0261C42.8488 89.9616 42.5659 89.9079 42.283 89.8292C42.0073 89.754 41.7208 89.6752 41.4308 89.5964C40.8579 89.4353 40.2706 89.2956 39.6977 89.0987C37.3844 88.404 35.1715 87.4443 33.535 86.6816C33.1304 86.4846 32.758 86.2984 32.4321 86.1409C32.2638 86.0585 32.1134 85.9797 31.9738 85.9117C31.8341 85.8401 31.7088 85.7649 31.5906 85.704C31.1287 85.4498 30.8673 85.303 30.8673 85.303C30.8673 85.303 30.6095 85.1597 30.1476 84.9055C29.6856 84.6441 29.0626 84.2359 28.2927 83.7704C26.7959 82.7856 24.8372 81.407 23.0432 79.835C21.2456 78.2666 19.5948 76.555 18.4274 75.2121C18.2771 75.051 18.1481 74.8827 18.0192 74.7251C17.8867 74.5712 17.7722 74.4208 17.654 74.2811C17.4212 74.0054 17.2279 73.7583 17.0631 73.5578C16.8948 73.3608 16.7803 73.189 16.7015 73.078C16.6191 72.9669 16.569 72.9097 16.569 72.9097C16.569 72.9097 16.3971 72.6733 16.0856 72.2544C15.9388 72.0467 15.7418 71.7996 15.5377 71.5024C15.3372 71.2052 15.1116 70.8686 14.8681 70.4997C14.7463 70.3171 14.6174 70.1273 14.4849 69.9232C14.3489 69.7263 14.2307 69.5114 14.1018 69.293C13.8404 68.8597 13.5682 68.4014 13.2854 67.9287C13.0275 67.4417 12.759 66.9404 12.4904 66.4319C12.4188 66.2994 12.3508 66.1741 12.2827 66.0452C12.2218 65.9127 12.161 65.7802 12.0965 65.6513C11.9748 65.3863 11.8494 65.1213 11.7241 64.8528C10.743 62.7221 9.9301 60.5199 9.46459 58.8298C9.40372 58.6185 9.34284 58.418 9.28197 58.2246C9.23184 58.0348 9.17454 57.8522 9.13515 57.6803C9.05279 57.3366 8.9776 57.0322 8.92388 56.7815C8.80213 56.2874 8.7341 56.0009 8.7341 56.0009C8.7341 56.0009 8.71619 55.9329 8.68755 55.8004C8.6589 55.6679 8.61951 55.4674 8.57296 55.2167C8.52641 54.966 8.4727 54.6652 8.40824 54.3143C8.34737 53.967 8.25785 53.5731 8.20771 53.1362C8.15042 52.7029 8.08597 52.2339 8.02151 51.7397C8.00719 51.6144 7.9857 51.489 7.97496 51.3637C7.95705 51.2348 7.94989 51.1059 7.93915 50.9734C7.92125 50.712 7.89618 50.4434 7.87469 50.1677C7.76011 49.0791 7.76011 47.9154 7.72788 46.748C7.76369 45.5806 7.76369 44.4169 7.87469 43.3247C7.89618 43.0526 7.92125 42.784 7.93915 42.5226C7.95347 42.3901 7.95705 42.2612 7.97496 42.1359C7.98928 42.007 8.01077 41.8816 8.02151 41.7563C8.08597 41.2657 8.154 40.7895 8.20771 40.3598C8.25426 39.9265 8.34737 39.5326 8.40824 39.1817C8.47628 38.8307 8.52641 38.5264 8.57296 38.2757C8.61951 38.0251 8.65532 37.8281 8.68755 37.6956C8.71619 37.5595 8.7341 37.4879 8.7341 37.4879C8.7341 37.4879 8.80213 37.205 8.92388 36.7073C8.98118 36.4602 9.05279 36.1559 9.13515 35.8121C9.17454 35.6402 9.23184 35.454 9.28197 35.2642C9.34284 35.0744 9.40372 34.8739 9.46459 34.6591C9.9301 32.9689 10.743 30.7667 11.7241 28.6361C11.8494 28.3747 11.9748 28.1061 12.0965 27.8411C12.161 27.7051 12.2218 27.5797 12.2827 27.4472C12.3508 27.3183 12.4188 27.1894 12.4904 27.0605C12.759 26.552 13.0275 26.0471 13.2854 25.5637C13.5682 25.091 13.8404 24.6327 14.1018 24.1994C14.2307 23.9846 14.3489 23.7661 14.4849 23.5656C14.6174 23.3687 14.7428 23.1789 14.8681 22.9927C15.1116 22.6238 15.3372 22.2872 15.5377 21.99C15.7418 21.6928 15.9352 21.4457 16.0856 21.238C16.3935 20.8227 16.569 20.5828 16.569 20.5828C16.569 20.5828 16.6155 20.5255 16.7015 20.4109C16.7803 20.2999 16.8913 20.1352 17.0631 19.9346C17.2279 19.7341 17.4248 19.487 17.654 19.2077C17.7686 19.0681 17.8867 18.9212 18.0192 18.7601C18.1481 18.6097 18.2735 18.4378 18.4274 18.2767C19.5948 16.9375 21.2456 15.2258 23.0432 13.6574C24.8372 12.0854 26.7959 10.7104 28.2927 9.72205C29.0626 9.25296 29.6856 8.84832 30.1476 8.5905C30.6095 8.33626 30.8673 8.18945 30.8673 8.18945C30.8673 8.18945 31.1287 8.04621 31.5906 7.79197C31.7052 7.72752 31.8341 7.65948 31.9738 7.58428C32.1134 7.51625 32.2638 7.43747 32.4321 7.35869C32.5431 7.30498 32.6542 7.24769 32.7759 7.19039C32.7831 7.19039 32.7938 7.19039 32.8045 7.19039C33.0982 7.21546 33.5136 7.22978 33.997 7.20113C34.971 7.15816 36.2422 6.95406 37.3558 6.34531C37.9359 6.0481 38.4766 5.64347 38.9493 5.21376C39.1784 4.99175 39.4219 4.77332 39.644 4.55489C39.866 4.33646 40.0701 4.11444 40.2491 3.90676C40.6072 3.48064 40.9402 3.11181 41.1587 2.83608C41.3663 2.56394 41.4917 2.38848 41.4917 2.38848C41.4917 2.38848 41.2231 2.37773 40.7791 2.37415C40.3315 2.37057 39.7084 2.38132 39.0066 2.43861C38.8275 2.45293 38.6449 2.46726 38.4659 2.48874C38.2832 2.51023 38.097 2.53529 37.9108 2.56752C37.5384 2.62481 37.1588 2.69643 36.7829 2.78595C36.038 2.96499 35.2717 3.19417 34.6952 3.52002C34.1008 3.8423 33.6389 4.23619 33.2915 4.63367C32.9585 5.0383 32.7473 5.46084 32.5933 5.83325C32.4572 6.20208 32.382 6.52794 32.3498 6.76427C32.3426 6.81082 32.3426 6.85021 32.3355 6.89318C32.2925 6.91825 32.2459 6.93973 32.2065 6.95764C32.0418 7.04 31.8843 7.11877 31.741 7.18681C31.605 7.26559 31.4725 7.33363 31.3543 7.39808C30.8924 7.6559 30.631 7.80272 30.631 7.80272C30.631 7.80272 30.3624 7.94595 29.9005 8.20735C29.4385 8.46875 28.8047 8.87697 28.0277 9.35322C26.513 10.3451 24.5328 11.7381 22.7209 13.328C20.909 14.9071 19.2403 16.6402 18.0622 17.9902C17.9082 18.1549 17.7793 18.3268 17.6504 18.4808C17.5179 18.6384 17.3962 18.7888 17.2852 18.932C17.0524 19.2149 16.8519 19.4584 16.6872 19.6625C16.5189 19.863 16.4043 20.0349 16.3183 20.1459C16.236 20.2569 16.1858 20.3178 16.1858 20.3178C16.1858 20.3178 16.014 20.5577 15.7024 20.9766C15.5484 21.1915 15.3515 21.4422 15.1474 21.7394C14.9433 22.0437 14.7213 22.3839 14.4742 22.7563C14.3417 22.9425 14.2164 23.1359 14.0803 23.3364C13.9514 23.537 13.8296 23.7554 13.6936 23.9702C13.4357 24.4071 13.1564 24.8726 12.8736 25.3524C12.6157 25.843 12.34 26.3479 12.0714 26.8671C11.9998 26.9996 11.9318 27.125 11.8602 27.2575C11.7993 27.3864 11.7348 27.5224 11.674 27.6549C11.5486 27.9235 11.4233 28.1956 11.298 28.4642C10.3025 30.6127 9.47891 32.8364 9.0134 34.5445C8.94537 34.7593 8.88807 34.9599 8.83436 35.1568C8.77349 35.3502 8.71261 35.5292 8.6768 35.7047C8.59445 36.0556 8.51925 36.36 8.45837 36.6142C8.34379 37.1155 8.26859 37.3984 8.26859 37.3984C8.26859 37.3984 8.25068 37.4736 8.22204 37.6025C8.18623 37.7386 8.15758 37.9391 8.10745 38.1898C8.06448 38.444 8.00361 38.752 7.93915 39.1029C7.87828 39.4574 7.78876 39.8549 7.73862 40.2917C7.68133 40.7286 7.61687 41.2048 7.55242 41.7062C7.5381 41.8315 7.51661 41.9604 7.50587 42.0857C7.48796 42.2182 7.4808 42.3471 7.46648 42.4796C7.44141 42.741 7.42709 43.0096 7.4056 43.2925C7.29102 44.3882 7.29102 45.5663 7.24805 46.7444C7.28744 47.9225 7.28744 49.1006 7.4056 50.1999C7.42709 50.4792 7.44499 50.7442 7.46648 51.0128C7.4808 51.1453 7.48796 51.2778 7.50587 51.4031C7.52019 51.532 7.54168 51.6609 7.55242 51.7862C7.61687 52.2876 7.68491 52.7674 7.73862 53.2007C7.78876 53.6375 7.87828 54.035 7.93915 54.3895C8.00719 54.7404 8.06448 55.0484 8.10745 55.3026C8.15758 55.5533 8.18623 55.7574 8.22204 55.8935C8.25068 56.026 8.26859 56.0976 8.26859 56.0976C8.26859 56.0976 8.34379 56.3841 8.45837 56.8854C8.51925 57.1396 8.59445 57.444 8.6768 57.7913C8.71261 57.9668 8.76991 58.153 8.83436 58.3464C8.88449 58.5397 8.94537 58.7438 9.0134 58.9587C9.47533 60.6667 10.3025 62.8869 11.298 65.039C11.4233 65.3075 11.5522 65.5797 11.674 65.8447C11.7348 65.9771 11.7993 66.1132 11.8602 66.2457C11.9318 66.3746 11.9998 66.5071 12.0714 66.636C12.34 67.1517 12.6122 67.6601 12.8736 68.1471C13.1564 68.627 13.4357 69.0925 13.6936 69.5293C13.8296 69.7478 13.9514 69.9662 14.0803 70.1667C14.2164 70.3637 14.3417 70.5606 14.4742 70.7468C14.7213 71.1192 14.9433 71.4594 15.1474 71.7602C15.3515 72.061 15.552 72.3117 15.7024 72.5229C16.0104 72.9419 16.1858 73.1818 16.1858 73.1818C16.1858 73.1818 16.2324 73.2427 16.3183 73.3573C16.4043 73.4683 16.5189 73.6366 16.6872 73.8371C16.8519 74.0376 17.0524 74.2847 17.2852 74.5676C17.3997 74.7072 17.5215 74.8576 17.6504 75.0152C17.7793 75.1692 17.9082 75.3446 18.0622 75.5093C19.2403 76.8629 20.9054 78.5925 22.7209 80.1716C24.5328 81.7579 26.513 83.1509 28.0277 84.1463C28.8047 84.6226 29.4385 85.0272 29.9005 85.2922C30.3588 85.55 30.631 85.6933 30.631 85.6933C30.631 85.6933 30.896 85.8437 31.3543 86.0979C31.4725 86.1624 31.6014 86.234 31.741 86.3128C31.8843 86.3844 32.0418 86.4596 32.2065 86.5384C32.536 86.6995 32.9084 86.8893 33.3238 87.0898C34.971 87.8597 37.2161 88.8265 39.5509 89.5284C40.131 89.7289 40.7182 89.8685 41.3019 90.0333C41.5884 90.112 41.8784 90.1908 42.1613 90.2696C42.4406 90.352 42.7306 90.4021 43.01 90.4701C43.5686 90.5919 44.1093 90.7065 44.6249 90.8246C45.137 90.9141 45.6276 90.9965 46.0823 91.0753C46.3079 91.1147 46.5228 91.1541 46.7305 91.1863C46.9381 91.2257 47.1351 91.24 47.3213 91.2651C47.6901 91.308 48.0124 91.3474 48.281 91.3797C48.8109 91.4441 49.1153 91.4835 49.1153 91.4835L49.1618 91.0323C49.1618 91.0323 48.8575 90.9929 48.3311 90.9321Z" fill="#F19F00"/>
<path d="M43.124 90.4914C43.124 90.4914 49.5087 92.1207 50.9446 98.0004L50.7655 91.0715L43.5501 90.1226L43.124 90.4914Z" fill="#F19F00"/>
<path d="M71.3237 89.9184C71.6101 89.9148 71.9073 89.9327 72.2296 89.9757C72.3084 89.99 72.3872 90.0008 72.4659 90.0151C72.5447 90.0258 72.6271 90.0402 72.713 90.0545C72.8742 90.0867 73.046 90.1261 73.2179 90.1726C73.9126 90.3624 74.6753 90.6668 75.4309 91.0177C76.1757 91.3472 76.9277 91.7124 77.6009 92.0598C78.2741 92.4035 78.8685 92.7365 79.291 92.9585C79.7136 93.1806 79.9607 93.3238 79.9607 93.3238C79.9607 93.3238 79.8962 93.3489 79.7673 93.399C79.6348 93.442 79.4593 93.5136 79.2194 93.578C78.7468 93.7141 78.0843 93.8896 77.3323 94.04C77.1461 94.0794 76.9527 94.1187 76.7522 94.1474C76.5517 94.176 76.344 94.1975 76.1399 94.2226C75.7209 94.2656 75.302 94.3014 74.8794 94.3085C74.0415 94.3443 73.1893 94.2405 72.4659 94.04C71.0085 93.6425 70.0202 92.7473 69.4115 92.0025C68.7956 91.2541 68.5342 90.6274 68.5342 90.6274C68.5342 90.6274 69.0355 90.3051 69.8591 90.1118C70.2745 90.0151 70.765 89.9184 71.3237 89.9184Z" fill="#F19F00"/>
<path d="M69.0961 84.1357C69.4398 83.595 69.8875 83.1223 70.3494 82.6604C70.5821 82.4312 70.8256 82.2235 71.0656 82.0266C71.1909 81.9263 71.3126 81.8332 71.4272 81.7437C71.5454 81.647 71.6564 81.5575 71.771 81.4715C72.2114 81.1242 72.6232 80.8449 72.9276 80.6623C73.2141 80.4582 73.4003 80.3472 73.4003 80.3472C73.4003 80.3472 73.4003 80.6086 73.3859 81.0418C73.3788 81.4787 73.3251 82.0588 73.232 82.7248C73.1389 83.3945 72.9956 84.1393 72.7772 84.8698C72.5623 85.5752 72.2687 86.2627 71.9142 86.8285C71.8247 86.9717 71.7316 87.1078 71.6349 87.2331C71.5919 87.2976 71.5418 87.3549 71.4881 87.4122C71.4415 87.4695 71.3878 87.5232 71.3377 87.5769C71.13 87.7846 70.9116 87.9636 70.6967 88.114C70.4783 88.268 70.2563 88.3969 70.045 88.4972C69.8302 88.601 69.6261 88.6905 69.4291 88.7443C68.6377 88.9698 68.0576 88.9305 68.0576 88.9305C68.0576 88.9305 67.9717 88.2537 68.0648 87.3227C68.1114 86.8536 68.2045 86.3272 68.3692 85.7865C68.4086 85.6504 68.4551 85.5107 68.5088 85.3783C68.5554 85.2386 68.6127 85.0918 68.6735 84.9557C68.7846 84.6836 68.9314 84.4007 69.0961 84.1357Z" fill="#F19F00"/>
<path d="M80.3473 85.7362C80.4011 85.6897 80.4727 85.6288 80.5693 85.5429C80.7556 85.3817 81.0313 85.1633 81.4037 84.9556C81.5863 84.8518 81.794 84.7515 82.0232 84.6584C82.2452 84.5653 82.503 84.4829 82.768 84.397C83.298 84.2394 83.9246 84.1463 84.6623 84.1571C85.0275 84.1678 85.4035 84.1893 85.7974 84.2251C86.1949 84.2609 86.6031 84.3182 87.0113 84.3863C87.4231 84.4543 87.8385 84.5295 88.2431 84.6083C88.637 84.6906 89.0309 84.7694 89.4033 84.8446C90.1409 85.0022 90.7998 85.1526 91.2689 85.2672C91.7416 85.3817 92.0281 85.4605 92.0281 85.4605C92.0281 85.4605 91.7846 85.6288 91.3728 85.8866C91.1651 86.0155 90.918 86.1659 90.6387 86.3271C90.4955 86.4059 90.3486 86.4918 90.1911 86.5777C90.0335 86.6601 89.8652 86.7389 89.6898 86.8248C89.3424 86.986 88.9736 87.1471 88.5904 87.3047C88.4007 87.3799 88.2037 87.455 88.0032 87.5231C87.9101 87.5625 87.8062 87.5983 87.7096 87.6305C87.6093 87.6556 87.509 87.6878 87.4052 87.7165C86.5887 87.942 85.7616 88.0853 85.0132 88.0853C83.4806 88.0423 82.2953 87.4694 81.5004 86.9108C81.1065 86.6386 80.8021 86.3557 80.5908 86.148C80.3831 85.9439 80.2793 85.8079 80.2793 85.8079C80.2793 85.8079 80.3008 85.7828 80.3473 85.7362Z" fill="#F19F00"/>
<path d="M82.4671 81.2745C82.2773 81.9011 81.9801 82.4168 81.6506 82.8321C81.4859 83.047 81.3069 83.2189 81.1314 83.3657C80.9488 83.5161 80.7697 83.645 80.5979 83.756C80.2541 83.9744 79.939 84.1105 79.717 84.1964C79.6024 84.2394 79.5057 84.2609 79.4412 84.2788C79.3768 84.2967 79.3374 84.3039 79.3374 84.3039C79.3374 84.3039 79.2694 84.1463 79.1834 83.8777C79.0903 83.6056 78.9865 83.2225 78.9005 82.7569C78.7215 81.8259 78.6427 80.6049 79.008 79.4089C79.1834 78.7929 79.4699 78.2021 79.8029 77.6578C80.1324 77.1064 80.4833 76.58 80.8378 76.1431C81.0168 75.9318 81.1708 75.7134 81.3212 75.5308C81.468 75.3482 81.6077 75.187 81.7187 75.051C81.9514 74.7896 82.1018 74.6392 82.1018 74.6392C82.1018 74.6392 82.1734 74.8898 82.2737 75.3052C82.374 75.7206 82.4957 76.3043 82.5996 76.9739C82.6461 77.3141 82.6927 77.6721 82.7141 78.041C82.7392 78.4026 82.7535 78.775 82.7428 79.1475C82.7392 79.5199 82.7141 79.8958 82.6748 80.2539C82.6282 80.612 82.5673 80.9665 82.4671 81.2745Z" fill="#F19F00"/>
<path d="M90.8607 77.3784C91.0003 77.1742 91.1937 76.8914 91.4909 76.5906C91.7774 76.2934 92.1641 75.9818 92.6404 75.6918C93.1023 75.3946 93.6788 75.1332 94.3807 74.9505C94.6134 74.8861 94.8677 74.836 95.1183 74.7858C95.3726 74.7321 95.6304 74.6891 95.9025 74.6497C97.231 74.4492 98.7385 74.3704 99.8701 74.3024C101.016 74.238 101.84 74.2236 101.84 74.2236C101.84 74.2236 101.557 74.5746 101.077 75.0938C100.618 75.6202 99.8987 76.2647 99.111 76.8949C98.9856 76.9916 98.8639 77.0811 98.7385 77.1742C98.6777 77.2208 98.6132 77.2674 98.5488 77.3139C98.4807 77.3569 98.4199 77.3998 98.3518 77.4428C98.0833 77.6147 97.8111 77.7794 97.5318 77.9298C97.2525 78.0802 96.9732 78.2163 96.6975 78.3309C96.4182 78.449 96.146 78.5529 95.8631 78.6209C94.3771 78.9897 93.0808 78.7606 92.1534 78.4383C91.2152 78.1053 90.6494 77.7006 90.6494 77.7006C90.6494 77.7006 90.7174 77.5789 90.8607 77.3784Z" fill="#F19F00"/>
<path d="M90.3701 75.6523C90.0979 75.9531 89.8509 76.1787 89.6396 76.3112C89.4426 76.4473 89.3137 76.5081 89.3137 76.5081C89.3137 76.5081 88.8661 75.9853 88.4472 75.151C88.0139 74.3059 87.5734 73.1457 87.5842 71.9032C87.5806 71.4448 87.6272 70.9686 87.7238 70.5102C87.7704 70.281 87.8277 70.0519 87.8885 69.8299C87.9602 69.6114 88.0103 69.3823 88.0855 69.171C88.2001 68.7986 88.329 68.4477 88.4543 68.1325C88.4901 68.0538 88.5224 67.975 88.5546 67.8998C88.5832 67.8246 88.6155 67.7494 88.6405 67.6778C88.6978 67.5345 88.7551 67.402 88.8017 67.2803C89.0129 66.7933 89.1705 66.4961 89.1705 66.4961C89.1705 66.4961 89.5787 67.1084 90.055 68.0394C90.1695 68.2722 90.2985 68.5193 90.4202 68.7914C90.4811 68.9275 90.5384 69.0671 90.5993 69.2032C90.6565 69.3393 90.7103 69.4825 90.764 69.6258C90.9788 70.1987 91.1686 70.811 91.2975 71.4198C91.3441 71.6561 91.3835 71.8888 91.4157 72.1144C91.4443 72.3436 91.4515 72.5585 91.4515 72.7697C91.4515 73.4286 91.319 74.0015 91.1256 74.4885C90.9108 74.9684 90.6315 75.3515 90.3701 75.6523Z" fill="#F19F00"/>
<path d="M100.737 67.4594C100.447 67.4737 100.178 67.4665 99.931 67.4522C98.9356 67.3842 98.2803 67.1514 98.2803 67.1514C98.2803 67.1514 98.2982 67.0082 98.3698 66.779C98.4092 66.6644 98.4665 66.5283 98.5273 66.3744C98.5882 66.2132 98.6634 66.0413 98.7637 65.8587C98.9499 65.4935 99.2185 65.0888 99.6016 64.6842C99.6875 64.5947 99.7878 64.4944 99.8988 64.3798C100.003 64.276 100.114 64.1757 100.232 64.079C100.472 63.8785 100.744 63.6852 101.052 63.5025C101.363 63.3199 101.704 63.1444 102.069 62.9761C102.423 62.8043 102.792 62.6395 103.179 62.482C103.938 62.1705 104.733 61.8804 105.456 61.6333C106.169 61.3827 106.799 61.1678 107.261 61.021C107.716 60.8706 107.999 60.7847 107.999 60.7847C107.999 60.7847 107.895 61.0532 107.694 61.4829C107.594 61.7014 107.476 61.9592 107.322 62.2421C107.172 62.5214 106.992 62.8258 106.792 63.1444C106.599 63.4631 106.377 63.7926 106.14 64.1256C106.083 64.2044 106.029 64.2867 105.961 64.3691C105.9 64.4479 105.836 64.5267 105.764 64.609C105.635 64.7666 105.496 64.9241 105.36 65.0781C105.077 65.3861 104.78 65.6761 104.482 65.9411C104.335 66.0772 104.185 66.1989 104.028 66.3171C103.866 66.4281 103.702 66.5319 103.541 66.6286C102.885 67.0082 102.23 67.2266 101.618 67.3484C101.31 67.4092 101.012 67.4415 100.737 67.4594Z" fill="#F19F00"/>
<path d="M97.7829 63.9358C97.7184 64.4443 97.5752 64.8919 97.4105 65.2571C97.3209 65.4362 97.2422 65.5973 97.1526 65.7369C97.0667 65.8766 96.97 65.9912 96.8984 66.0807C96.7408 66.2633 96.637 66.36 96.637 66.36C96.637 66.36 96.0605 65.9769 95.4088 65.2858C95.2476 65.1175 95.0865 64.9277 94.9146 64.72C94.7463 64.5051 94.5708 64.276 94.4133 64.036C94.0946 63.5491 93.8189 63.0048 93.6362 62.4032C93.5968 62.2528 93.5575 62.106 93.5217 61.9484C93.4823 61.7909 93.4536 61.6333 93.425 61.4757C93.3748 61.1606 93.3426 60.8383 93.3319 60.5197C93.3247 59.8894 93.314 59.2592 93.3569 58.7149C93.3784 58.4392 93.4071 58.1814 93.4357 57.9522C93.4536 57.7194 93.4823 57.5153 93.4966 57.3434C93.5396 56.9997 93.579 56.792 93.579 56.792C93.579 56.792 93.7831 56.9639 94.0982 57.2647C94.4204 57.5619 94.8537 57.9916 95.3228 58.5108C95.7704 59.0229 96.2359 59.6209 96.6477 60.2583C96.8518 60.5769 97.0452 60.9028 97.2135 61.2322C97.3746 61.5581 97.4928 61.8804 97.5967 62.1991C97.6898 62.5106 97.7506 62.8186 97.7829 63.1086C97.7972 63.2518 97.8043 63.3951 97.8079 63.5347C97.8079 63.6028 97.8079 63.6744 97.8043 63.7424C97.8008 63.8033 97.7936 63.8677 97.7829 63.9358Z" fill="#F19F00"/>
<path d="M106.523 54.3534C106.244 54.5504 105.954 54.7115 105.671 54.8512C105.109 55.1233 104.554 55.288 104.07 55.3883C103.1 55.5817 102.405 55.528 102.405 55.528C102.405 55.528 102.323 54.955 102.506 54.1565C102.545 53.956 102.613 53.7411 102.688 53.5155C102.756 53.2899 102.856 53.05 102.975 52.8029C103.096 52.5594 103.243 52.3088 103.426 52.0581C103.515 51.9292 103.612 51.8039 103.723 51.675C103.78 51.6105 103.834 51.546 103.891 51.4816C103.941 51.4171 104.006 51.3563 104.067 51.2918C105.019 50.2641 106.555 49.2113 107.766 48.3555C108.382 47.933 108.94 47.5677 109.345 47.3063C109.75 47.0449 110 46.8945 110 46.8945C110 46.8945 109.964 47.1774 109.886 47.6465C109.803 48.112 109.682 48.7566 109.495 49.4727C109.28 50.1889 108.998 50.9695 108.65 51.7036C108.568 51.8898 108.468 52.0724 108.364 52.2479C108.26 52.4198 108.152 52.5917 108.041 52.76C107.816 53.0894 107.58 53.3973 107.325 53.6623C107.067 53.9273 106.806 54.1601 106.523 54.3534Z" fill="#F19F00"/>
<path d="M100.612 55.1915C100.612 55.1915 99.9422 54.9695 99.115 54.4754C98.6997 54.2247 98.2485 53.9096 97.8152 53.5264C97.5968 53.3331 97.3855 53.1254 97.1921 52.8962C96.9809 52.6706 96.7875 52.4199 96.6084 52.155C96.4294 51.8864 96.279 51.6035 96.1465 51.3135C96.014 51.0234 95.9138 50.7226 95.792 50.4147C95.5772 49.8095 95.4268 49.2008 95.3229 48.6672C95.194 48.1229 95.1117 47.6431 95.0687 47.3029C95.0257 46.9627 95.0078 46.7515 95.0078 46.7515C95.0078 46.7515 95.2513 46.8661 95.6309 47.0702C96.0176 47.2779 96.5476 47.5786 97.1348 47.9582C97.7149 48.3378 98.3666 48.7961 98.9181 49.3046C99.4874 49.8095 99.9995 50.3681 100.376 50.9267C100.572 51.206 100.698 51.4818 100.802 51.7575C100.905 52.0296 100.974 52.2946 101.024 52.5524C101.074 52.8067 101.092 53.0538 101.095 53.2865C101.11 53.5121 101.074 53.7305 101.038 53.9239C100.902 54.7081 100.612 55.1915 100.612 55.1915Z" fill="#F19F00"/>
<path d="M108.042 37.0114C107.995 37.3158 107.942 37.6201 107.874 37.9209C107.738 38.5153 107.566 39.0811 107.29 39.5753C106.939 40.2306 106.499 40.7498 106.044 41.1652C105.582 41.577 105.113 41.8813 104.669 42.1033C103.784 42.5545 103.097 42.687 103.097 42.687C103.097 42.687 103.047 42.5545 102.982 42.3218C102.929 42.0854 102.835 41.7524 102.8 41.3442C102.764 40.936 102.771 40.4562 102.878 39.919C102.972 39.3855 103.136 38.7982 103.469 38.1716C103.58 37.9639 103.706 37.749 103.842 37.5342C103.906 37.4303 103.974 37.3193 104.049 37.2083C104.121 37.1045 104.193 36.9899 104.261 36.8825C104.626 36.3418 105.041 35.7867 105.46 35.2639C105.876 34.7375 106.298 34.2362 106.645 33.8101C107.362 32.9471 107.899 32.3491 107.899 32.3491C107.899 32.3491 107.981 32.786 108.071 33.4735C108.121 33.8173 108.139 34.2255 108.153 34.6695C108.167 35.1135 108.167 35.5969 108.146 36.0911C108.128 36.3919 108.089 36.7034 108.042 37.0114Z" fill="#F19F00"/>
<path d="M96.5577 40.9935C96.4682 40.9219 96.3894 40.8395 96.2999 40.7571C96.2175 40.6748 96.1316 40.5888 96.0457 40.5029C95.8809 40.331 95.7234 40.1484 95.5766 39.9622C95.4298 39.776 95.2937 39.5862 95.1648 39.3893C95.0251 39.1852 94.9034 38.9918 94.7852 38.8127C94.5668 38.4833 94.3806 38.1539 94.2266 37.8531C94.1442 37.6991 94.0726 37.5523 94.0082 37.4162C93.9401 37.2766 93.8685 37.1512 93.8076 37.0331C93.5677 36.5604 93.4424 36.2524 93.4424 36.2524C93.4424 36.2524 94.1908 36.3706 95.2328 36.6499C95.4906 36.718 95.7735 36.7967 96.0564 36.8898C96.3321 36.9794 96.6258 37.0868 96.9194 37.2014C97.5102 37.427 98.1118 37.7027 98.6633 38.0178C99.1073 38.2577 99.4761 38.5263 99.8055 38.8127C100.31 39.2496 100.679 39.7294 100.916 40.1985C101.138 40.6676 101.256 41.1224 101.317 41.5091C101.367 41.9066 101.374 42.236 101.335 42.4724C101.306 42.7087 101.267 42.8448 101.267 42.8448C101.267 42.8448 100.565 42.809 99.6408 42.5512C98.7062 42.2969 97.5138 41.8278 96.5577 40.9935Z" fill="#F19F00"/>
<path d="M102.438 27.909C102.109 28.4282 101.729 28.8543 101.375 29.1909C100.662 29.857 100.042 30.1721 100.042 30.1721C100.042 30.1721 99.953 30.0611 99.8169 29.8534C99.6808 29.6493 99.5304 29.3377 99.3729 28.9582C99.2117 28.5786 99.0756 28.1167 99.0184 27.576C98.9825 27.311 98.979 27.0138 98.9897 26.713C98.9897 26.4086 99.0184 26.0863 99.0828 25.7426C99.1437 25.3988 99.2368 25.0407 99.3478 24.6683C99.3979 24.4857 99.466 24.2923 99.5304 24.1061C99.5913 23.9199 99.6557 23.7337 99.7202 23.5439C99.9816 22.792 100.29 22.0328 100.576 21.3489C100.723 21.0123 100.862 20.69 100.991 20.3999C101.117 20.1171 101.224 19.8592 101.321 19.6444C101.511 19.2147 101.632 18.9604 101.632 18.9604C101.632 18.9604 101.768 19.2147 101.976 19.6444C102.08 19.8557 102.184 20.1242 102.302 20.4179C102.413 20.7186 102.531 21.0481 102.649 21.399C102.71 21.578 102.76 21.7607 102.818 21.9397C102.868 22.1259 102.929 22.3157 102.968 22.5162C103.054 22.903 103.126 23.3112 103.179 23.7158C103.237 24.1204 103.269 24.5251 103.272 24.9118C103.265 25.3093 103.226 25.6924 103.161 26.0541C103.018 26.7739 102.753 27.3862 102.438 27.909Z" fill="#F19F00"/>
<path d="M92.4223 29.8426C92.1358 29.6707 91.8673 29.4774 91.613 29.2768C91.3588 29.0763 91.1189 28.865 90.8897 28.6538C90.6605 28.4497 90.4349 28.2456 90.2344 28.045C90.0267 27.8481 89.8513 27.6547 89.6901 27.4828C89.6114 27.3933 89.5397 27.311 89.4681 27.2322C89.3965 27.1534 89.3285 27.0889 89.2748 27.0209C89.0313 26.7631 88.9023 26.5984 88.9023 26.5984C88.9023 26.5984 89.1673 26.5661 89.6185 26.5375C90.0625 26.5088 90.6963 26.4766 91.3839 26.5017C92.0786 26.5232 92.8628 26.5876 93.6362 26.713C93.826 26.7488 94.023 26.781 94.2127 26.824C94.3954 26.8705 94.5744 26.9171 94.7499 26.9672C95.1044 27.071 95.4481 27.1928 95.7632 27.336C96.0712 27.4757 96.3433 27.6332 96.5976 27.8051C96.8411 27.977 97.0416 28.1739 97.2242 28.3637C97.5787 28.7505 97.8294 29.1515 98.0049 29.5132C98.1732 29.8748 98.2484 30.2043 98.2949 30.4335C98.3343 30.6662 98.3379 30.8023 98.3379 30.8023C98.3379 30.8023 97.6503 30.9634 96.6799 30.967C96.1965 30.9706 95.6415 30.9384 95.065 30.8381C94.4741 30.7414 93.8618 30.5767 93.271 30.3117C92.9773 30.1828 92.698 30.0217 92.4223 29.8426Z" fill="#F19F00"/>
<path d="M95.491 16.6547C95.3227 17.2384 95.0864 17.7433 94.8393 18.1551C94.338 18.9751 93.8331 19.4406 93.8331 19.4406C93.8331 19.4406 93.3354 19.1148 92.8341 18.4559C92.7123 18.2876 92.5798 18.1014 92.4652 17.8901C92.3435 17.686 92.2182 17.4604 92.1107 17.2133C91.8923 16.7156 91.7347 16.1176 91.6703 15.4193C91.5987 14.7318 91.6094 13.9476 91.6667 13.1455C91.7276 12.3327 91.7992 11.5413 91.8816 10.8108C91.9711 10.0839 92.0606 9.43933 92.1286 8.97024C92.2003 8.51189 92.2432 8.229 92.2432 8.229C92.2432 8.229 92.3005 8.27914 92.3865 8.3794C92.476 8.47966 92.5977 8.62648 92.7553 8.8091C93.0632 9.18151 93.4786 9.70431 93.8976 10.3202C94.3058 10.954 94.7248 11.6738 95.0578 12.415C95.38 13.167 95.6056 13.9548 95.6808 14.6745C95.7023 14.8571 95.7059 15.0326 95.7059 15.2045C95.7059 15.3764 95.6916 15.5518 95.6773 15.7166C95.6379 16.0496 95.5734 16.3611 95.491 16.6547Z" fill="#F19F00"/>
<path d="M86.3813 21.0946C86.2238 21.0445 86.0698 20.9872 85.9158 20.9263C85.837 20.8977 85.7654 20.8654 85.6866 20.8368C85.6079 20.801 85.5291 20.7723 85.4539 20.7437C84.838 20.4966 84.2758 20.1958 83.7888 19.9094C83.2803 19.6408 82.8614 19.3794 82.5677 19.186C82.4209 19.0858 82.3099 18.9998 82.2275 18.9461C82.1416 18.8924 82.0986 18.8638 82.0986 18.8638C82.0986 18.8638 82.1631 18.8387 82.2777 18.7957C82.3923 18.7527 82.5641 18.6919 82.7682 18.6238C83.1872 18.4878 83.7745 18.3087 84.4584 18.1476C84.8022 18.0688 85.1674 17.99 85.5434 17.922C85.7296 17.8898 85.9266 17.8575 86.1199 17.8325C86.3061 17.811 86.4995 17.7895 86.6929 17.7752C87.4556 17.7071 88.2326 17.7107 88.9166 17.8217C89.5898 17.9363 90.1484 18.1726 90.6067 18.4448C90.8359 18.5809 91.0436 18.7277 91.2226 18.8817C91.3945 19.0392 91.5449 19.2004 91.6738 19.3507C92.1895 19.9702 92.3685 20.5002 92.3685 20.5002C92.3685 20.5002 91.7526 20.8296 90.8108 21.091C90.3417 21.2235 89.7939 21.3381 89.2066 21.3918C88.6158 21.4491 87.9999 21.4276 87.341 21.331C87.0187 21.2737 86.6964 21.1949 86.3813 21.0946Z" fill="#F19F00"/>
<path d="M84.5907 9.94043C84.4689 10.2018 84.383 10.3451 84.383 10.3451C84.383 10.3451 84.3472 10.3307 84.2899 10.3057C84.2218 10.2806 84.1287 10.2448 84.0141 10.1875C83.7885 10.0837 83.477 9.91894 83.1404 9.6647C82.4744 9.14548 81.6579 8.37918 81.1423 7.06143C80.9704 6.62815 80.8093 6.15189 80.6696 5.64699C80.4978 5.01677 80.3509 4.34357 80.2292 3.69185C80.1003 3.05446 79.9857 2.43498 79.8962 1.88352C79.7135 0.787786 79.6133 0 79.6133 0C79.6133 0 80.0072 0.236336 80.5909 0.644552C80.8809 0.84508 81.2175 1.09216 81.5756 1.37146C81.9229 1.66509 82.2953 1.99095 82.657 2.34545C82.879 2.56389 83.101 2.7859 83.3087 3.01507C83.3588 3.07237 83.4126 3.12966 83.4663 3.19053C83.5164 3.24783 83.5665 3.31228 83.6167 3.37316C83.7098 3.49491 83.8064 3.62024 83.896 3.74556C84.2612 4.2433 84.5692 4.76253 84.7804 5.27459C84.9237 5.60402 85.0132 5.95495 85.0776 6.2808C85.1385 6.61024 85.1672 6.92536 85.1743 7.23331C85.1815 7.83847 85.0956 8.38276 84.981 8.84469C84.8556 9.30304 84.7124 9.67545 84.5907 9.94043Z" fill="#F19F00"/>
<path d="M75.825 13.7112C75.4239 13.6325 75.0551 13.5429 74.7149 13.4498C74.3676 13.3711 74.056 13.2887 73.7946 13.2135C73.2754 13.0631 72.9531 12.9342 72.9531 12.9342C72.9531 12.9342 73.544 12.4866 74.4535 11.9387C74.9047 11.6666 75.4382 11.3694 76.0147 11.0901C76.5913 10.8215 77.1964 10.5816 77.8123 10.399C78.2814 10.2593 78.7505 10.1483 79.1945 10.1018C80.5445 9.98001 81.6223 10.3667 82.2848 10.8358C82.625 11.065 82.8685 11.2942 83.0404 11.4625C83.1227 11.5448 83.1836 11.62 83.2266 11.6702C83.2624 11.7239 83.2839 11.7525 83.2839 11.7525C83.2839 11.7525 83.1621 11.8743 82.9365 12.0533C82.7109 12.2359 82.3743 12.4794 81.959 12.7301C81.5436 12.9843 81.0458 13.2422 80.498 13.4498C80.2258 13.5537 79.9358 13.654 79.635 13.722C79.3342 13.7972 79.0298 13.8473 78.6968 13.8939C77.7371 14.0156 76.7452 13.8581 75.825 13.7112Z" fill="#F19F00"/>
<path d="M61.6697 90.9321C61.9311 90.8998 62.2534 90.8604 62.6187 90.8175C62.8013 90.7888 62.9947 90.7781 63.2059 90.7387C63.4064 90.7029 63.6213 90.6671 63.8433 90.6241C64.2909 90.5489 64.7779 90.4701 65.29 90.377C65.7949 90.266 66.3284 90.1479 66.8835 90.0261C67.1628 89.9616 67.4421 89.9079 67.725 89.8292C68.0043 89.754 68.2836 89.6752 68.5772 89.5964C69.1501 89.4353 69.741 89.2956 70.3067 89.0987C72.6235 88.404 74.8401 87.4443 76.473 86.6816C76.8776 86.4846 77.25 86.2984 77.5794 86.1409C77.7406 86.0585 77.891 85.9797 78.0378 85.9117C78.1774 85.8401 78.3028 85.7649 78.4138 85.704C78.8757 85.4498 79.1371 85.303 79.1371 85.303C79.1371 85.303 79.4021 85.1597 79.8604 84.9055C80.3152 84.6441 80.9454 84.2359 81.7082 83.7704C83.2121 82.7856 85.1708 81.407 86.9613 79.835C88.7588 78.2666 90.4096 76.555 91.577 75.2121C91.7238 75.051 91.8563 74.8827 91.9852 74.7251C92.1105 74.5712 92.2323 74.4208 92.3504 74.2811C92.576 74.0054 92.7765 73.7583 92.9413 73.5578C93.106 73.3608 93.2206 73.189 93.3029 73.078C93.3853 72.9669 93.4318 72.9097 93.4318 72.9097C93.4318 72.9097 93.6037 72.6733 93.9081 72.2544C94.0621 72.0467 94.259 71.7996 94.4595 71.5024C94.6565 71.2052 94.8857 70.8686 95.1256 70.4997C95.2509 70.3171 95.3834 70.1273 95.5123 69.9232C95.6412 69.7263 95.763 69.5114 95.8955 69.293C96.1497 68.8597 96.429 68.4014 96.7119 67.9287C96.9697 67.4417 97.2311 66.9404 97.5104 66.4319C97.5785 66.2994 97.6465 66.1741 97.7109 66.0452C97.7718 65.9127 97.8327 65.7802 97.8972 65.6513C98.0153 65.3863 98.1442 65.1213 98.2696 64.8528C99.2507 62.7221 100.067 60.5199 100.533 58.8298C100.594 58.6185 100.654 58.418 100.712 58.2246C100.769 58.0348 100.826 57.8522 100.859 57.6803C100.948 57.3366 101.02 57.0322 101.073 56.7815C101.195 56.2874 101.26 56.0009 101.26 56.0009C101.26 56.0009 101.277 55.9329 101.31 55.8004C101.346 55.6679 101.374 55.4674 101.421 55.2167C101.474 54.966 101.525 54.6652 101.589 54.3143C101.65 53.967 101.739 53.5731 101.786 53.1362C101.847 52.7029 101.908 52.2339 101.972 51.7397C101.99 51.6144 102.008 51.489 102.022 51.3637C102.037 51.2348 102.044 51.1059 102.058 50.9734C102.076 50.712 102.097 50.4434 102.119 50.1677C102.234 49.0791 102.234 47.9154 102.266 46.748C102.23 45.5806 102.23 44.4169 102.119 43.3247C102.097 43.0526 102.076 42.784 102.058 42.5226C102.044 42.3901 102.037 42.2612 102.022 42.1359C102.004 42.007 101.986 41.8816 101.972 41.7563C101.904 41.2657 101.847 40.7895 101.786 40.3598C101.739 39.9265 101.65 39.5326 101.589 39.1817C101.525 38.8307 101.474 38.5264 101.421 38.2757C101.374 38.0251 101.342 37.8281 101.31 37.6956C101.281 37.5595 101.26 37.4879 101.26 37.4879C101.26 37.4879 101.195 37.205 101.073 36.7073C101.016 36.4602 100.944 36.1559 100.859 35.8121C100.823 35.6402 100.769 35.454 100.712 35.2642C100.654 35.0744 100.597 34.8739 100.533 34.6591C100.067 32.9689 99.2543 30.7667 98.2696 28.6361C98.1442 28.3747 98.0153 28.1061 97.8972 27.8411C97.8291 27.7051 97.7718 27.5797 97.7109 27.4472C97.6429 27.3183 97.5749 27.1894 97.5104 27.0605C97.2347 26.552 96.9733 26.0471 96.7119 25.5637C96.429 25.091 96.1497 24.6327 95.8955 24.1994C95.7666 23.9846 95.6412 23.7661 95.5123 23.5656C95.3798 23.3687 95.2509 23.1789 95.1256 22.9927C94.8892 22.6238 94.6565 22.2872 94.4595 21.99C94.259 21.6928 94.0621 21.4457 93.9081 21.238C93.6037 20.8227 93.4318 20.5828 93.4318 20.5828C93.4318 20.5828 93.3853 20.5255 93.3029 20.4109C93.2206 20.2999 93.106 20.1352 92.9413 19.9346C92.7801 19.7341 92.576 19.487 92.3504 19.2077C92.2323 19.0681 92.1141 18.9212 91.9852 18.7601C91.8527 18.6097 91.7238 18.4378 91.577 18.2767C90.4096 16.9375 88.7588 15.2258 86.9613 13.6574C85.1672 12.0854 83.2085 10.7104 81.7082 9.72205C80.9454 9.25296 80.3152 8.84832 79.8604 8.5905C79.4021 8.33626 79.1371 8.18945 79.1371 8.18945C79.1371 8.18945 78.8721 8.04621 78.4138 7.79197C78.2992 7.72752 78.1774 7.65948 78.0378 7.58428C77.8946 7.51625 77.7406 7.43747 77.5794 7.35869C77.4613 7.30498 77.3503 7.24769 77.2321 7.19039C77.2249 7.19039 77.2142 7.19039 77.2034 7.19039C76.9134 7.21546 76.5016 7.22978 76.0146 7.20113C75.037 7.15816 73.7694 6.95406 72.6522 6.34531C72.0721 6.0481 71.5278 5.64347 71.0551 5.21376C70.8224 4.99175 70.5825 4.77332 70.3605 4.55489C70.1384 4.33646 69.9343 4.11444 69.7517 3.90676C69.4008 3.48064 69.0606 3.11181 68.8493 2.83608C68.6309 2.56394 68.5163 2.38848 68.5163 2.38848C68.5163 2.38848 68.7849 2.37773 69.2289 2.37415C69.6729 2.37057 70.2924 2.38132 71.0014 2.43861C71.1805 2.45293 71.3631 2.46726 71.5457 2.48874C71.7283 2.51023 71.911 2.53529 72.0972 2.56752C72.4696 2.62481 72.8491 2.69643 73.2251 2.78595C73.9771 2.96499 74.7362 3.19417 75.3199 3.52002C75.9108 3.8423 76.3691 4.23619 76.7164 4.63367C77.0566 5.0383 77.2643 5.46084 77.4111 5.83325C77.5544 6.20208 77.626 6.52794 77.6582 6.76427C77.6654 6.81082 77.669 6.85021 77.6725 6.89318C77.7155 6.91825 77.7585 6.93973 77.7979 6.95764C77.9662 7.04 78.1237 7.11877 78.2634 7.18681C78.4066 7.26559 78.5391 7.33363 78.6501 7.39808C79.1156 7.6559 79.3806 7.80272 79.3806 7.80272C79.3806 7.80272 79.6456 7.94595 80.1111 8.20735C80.5694 8.46875 81.2104 8.87697 81.9839 9.35322C83.495 10.3451 85.4752 11.7381 87.2871 13.328C89.1026 14.9071 90.7713 16.6402 91.9494 17.9902C92.1069 18.1549 92.2358 18.3268 92.3647 18.4808C92.4972 18.6384 92.6118 18.7888 92.7336 18.932C92.9592 19.2149 93.1633 19.4584 93.328 19.6625C93.4963 19.863 93.6073 20.0349 93.6932 20.1459C93.7756 20.2569 93.8222 20.3178 93.8222 20.3178C93.8222 20.3178 94.0012 20.5577 94.3056 20.9766C94.4595 21.1915 94.6601 21.4422 94.8642 21.7394C95.0647 22.0437 95.2903 22.3839 95.5374 22.7563C95.6627 22.9425 95.788 23.1359 95.9241 23.3364C96.0602 23.537 96.1748 23.7554 96.3108 23.9702C96.5758 24.4071 96.848 24.8726 97.1309 25.3524C97.3958 25.843 97.6644 26.3479 97.9401 26.8671C98.0082 26.9996 98.0798 27.125 98.1478 27.2575C98.2087 27.3864 98.2731 27.5224 98.334 27.6549C98.4558 27.9235 98.5883 28.1956 98.71 28.4642C99.7055 30.6127 100.525 32.8364 100.995 34.5445C101.055 34.7593 101.116 34.9599 101.174 35.1568C101.235 35.3502 101.292 35.5292 101.331 35.7047C101.414 36.0556 101.489 36.36 101.55 36.6142C101.668 37.1155 101.736 37.3984 101.736 37.3984C101.736 37.3984 101.757 37.4736 101.782 37.6025C101.818 37.7386 101.854 37.9391 101.897 38.1898C101.944 38.444 102.008 38.752 102.072 39.1029C102.13 39.4574 102.223 39.8549 102.273 40.2917C102.33 40.7286 102.391 41.2048 102.459 41.7062C102.473 41.8315 102.491 41.9604 102.509 42.0857C102.527 42.2182 102.531 42.3471 102.545 42.4796C102.567 42.741 102.584 43.0096 102.61 43.2925C102.724 44.3882 102.724 45.5663 102.764 46.7444C102.724 47.9225 102.724 49.1006 102.61 50.1999C102.584 50.4792 102.567 50.7442 102.545 51.0128C102.531 51.1453 102.527 51.2778 102.509 51.4031C102.491 51.532 102.473 51.6609 102.459 51.7862C102.391 52.2876 102.33 52.7674 102.273 53.2007C102.226 53.6375 102.13 54.035 102.072 54.3895C102.008 54.7404 101.947 55.0484 101.897 55.3026C101.854 55.5533 101.818 55.7574 101.782 55.8935C101.757 56.026 101.736 56.0976 101.736 56.0976C101.736 56.0976 101.668 56.3841 101.55 56.8854C101.489 57.1396 101.414 57.444 101.331 57.7913C101.292 57.9668 101.235 58.153 101.174 58.3464C101.116 58.5397 101.055 58.7438 100.995 58.9587C100.525 60.6667 99.7055 62.8869 98.71 65.039C98.5847 65.3075 98.4558 65.5797 98.334 65.8447C98.2731 65.9771 98.2087 66.1132 98.1478 66.2457C98.0798 66.3746 98.0082 66.5071 97.9401 66.636C97.6644 67.1517 97.3994 67.6601 97.1309 68.1471C96.848 68.627 96.5758 69.0925 96.3108 69.5293C96.1748 69.7478 96.0602 69.9662 95.9241 70.1667C95.788 70.3637 95.6627 70.5606 95.5374 70.7468C95.2903 71.1192 95.0647 71.4594 94.8642 71.7602C94.6601 72.061 94.4595 72.3117 94.3056 72.5229C93.9976 72.9419 93.8222 73.1818 93.8222 73.1818C93.8222 73.1818 93.772 73.2427 93.6932 73.3573C93.6109 73.4683 93.4963 73.6366 93.328 73.8371C93.1633 74.0376 92.9556 74.2847 92.7336 74.5676C92.6118 74.7072 92.4972 74.8576 92.3647 75.0152C92.2323 75.1692 92.1069 75.3446 91.9494 75.5093C90.7713 76.8629 89.1062 78.5925 87.2871 80.1716C85.4752 81.7579 83.495 83.1509 81.9839 84.1463C81.2104 84.6226 80.5694 85.0272 80.1111 85.2922C79.6456 85.55 79.3806 85.6933 79.3806 85.6933C79.3806 85.6933 79.1156 85.8437 78.6501 86.0979C78.5391 86.1624 78.4066 86.234 78.2634 86.3128C78.1237 86.3844 77.9662 86.4596 77.7979 86.5384C77.4684 86.6995 77.0889 86.8893 76.6842 87.0898C75.037 87.8597 72.799 88.8265 70.4571 89.5284C69.8842 89.7289 69.2934 89.8685 68.7133 90.0333C68.4268 90.112 68.1332 90.1908 67.8539 90.2696C67.5674 90.352 67.2809 90.4021 67.0088 90.4701C66.4466 90.5919 65.9059 90.7065 65.3938 90.8246C64.8782 90.9141 64.3876 90.9965 63.9364 91.0753C63.7144 91.1147 63.496 91.1541 63.2883 91.1863C63.0806 91.2257 62.8836 91.24 62.6974 91.2651C62.3286 91.308 62.0063 91.3474 61.7449 91.3797C61.215 91.4441 60.9106 91.4835 60.9106 91.4835L60.864 91.0323C60.8461 91.0323 61.1434 90.9929 61.6697 90.9321Z" fill="#F19F00"/>
<path d="M66.8827 90.4914C66.8827 90.4914 60.4945 92.1207 59.0586 98.0004L59.2412 91.0715L66.4566 90.1226L66.8827 90.4914Z" fill="#F19F00"/>
</svg>
