<svg width="41" height="40" viewBox="0 0 41 40" fill="none" xmlns="http://www.w3.org/2000/svg">
<path d="M0.713867 20C0.713867 8.9543 9.66817 0 20.7139 0C31.7596 0 40.7139 8.9543 40.7139 20C40.7139 31.0457 31.7596 40 20.7139 40C9.66817 40 0.713867 31.0457 0.713867 20Z" fill="url(#paint0_linear_205_2514)"/>
<mask id="mask0_205_2514" style="mask-type:alpha" maskUnits="userSpaceOnUse" x="0" y="0" width="41" height="40">
<path fill-rule="evenodd" clip-rule="evenodd" d="M0.713867 20C0.713867 8.9543 9.66817 0 20.7139 0C31.7596 0 40.7139 8.9543 40.7139 20C40.7139 31.0457 31.7596 40 20.7139 40C9.66817 40 0.713867 31.0457 0.713867 20Z" fill="white"/>
</mask>
<g mask="url(#mask0_205_2514)">
<path fill-rule="evenodd" clip-rule="evenodd" d="M20.7145 9.3335C17.8176 9.3335 17.4541 9.34616 16.3163 9.39794C15.1807 9.44994 14.4056 9.62972 13.7274 9.8935C13.0258 10.1659 12.4307 10.5304 11.8378 11.1235C11.2444 11.7164 10.88 12.3115 10.6067 13.0129C10.3422 13.6913 10.1622 14.4667 10.1111 15.6018C10.0602 16.7396 10.0469 17.1034 10.0469 20.0003C10.0469 22.8972 10.0598 23.2596 10.1113 24.3974C10.1635 25.533 10.3433 26.3081 10.6069 26.9863C10.8796 27.6879 11.244 28.283 11.8371 28.8759C12.4298 29.4693 13.0249 29.8346 13.726 30.107C14.4047 30.3708 15.18 30.5506 16.3154 30.6026C17.4532 30.6544 17.8165 30.6671 20.7132 30.6671C23.6103 30.6671 23.9728 30.6544 25.1106 30.6026C26.2462 30.5506 27.0222 30.3708 27.7008 30.107C28.4022 29.8346 28.9964 29.4693 29.5891 28.8759C30.1824 28.283 30.5469 27.6879 30.8202 26.9866C31.0824 26.3081 31.2624 25.5328 31.3158 24.3977C31.3669 23.2599 31.3802 22.8972 31.3802 20.0003C31.3802 17.1034 31.3669 16.7398 31.3158 15.602C31.2624 14.4664 31.0824 13.6913 30.8202 13.0131C30.5469 12.3115 30.1824 11.7164 29.5891 11.1235C28.9957 10.5302 28.4024 10.1657 27.7002 9.8935C27.0202 9.62972 26.2446 9.44994 25.109 9.39794C23.9712 9.34616 23.609 9.3335 20.7112 9.3335H20.7145ZM19.7574 11.2556C19.9432 11.2553 20.143 11.2554 20.3587 11.2555L20.7143 11.2556C23.5623 11.2556 23.8998 11.2658 25.0245 11.3169C26.0645 11.3645 26.629 11.5383 27.005 11.6843C27.5028 11.8776 27.8577 12.1087 28.2308 12.4821C28.6041 12.8554 28.8352 13.211 29.029 13.7087C29.175 14.0843 29.349 14.6487 29.3964 15.6888C29.4475 16.8132 29.4586 17.151 29.4586 19.9977C29.4586 22.8444 29.4475 23.1822 29.3964 24.3066C29.3488 25.3466 29.175 25.9111 29.029 26.2866C28.8357 26.7844 28.6041 27.1389 28.2308 27.512C27.8574 27.8853 27.503 28.1164 27.005 28.3098C26.6294 28.4564 26.0645 28.6298 25.0245 28.6773C23.9001 28.7284 23.5623 28.7396 20.7143 28.7396C17.866 28.7396 17.5285 28.7284 16.404 28.6773C15.364 28.6293 14.7995 28.4556 14.4233 28.3096C13.9255 28.1162 13.57 27.8851 13.1966 27.5118C12.8233 27.1384 12.5922 26.7838 12.3984 26.2858C12.2524 25.9102 12.0784 25.3457 12.0311 24.3057C11.9799 23.1813 11.9697 22.8435 11.9697 19.995C11.9697 17.1465 11.9799 16.8105 12.0311 15.6861C12.0786 14.6461 12.2524 14.0816 12.3984 13.7056C12.5917 13.2078 12.8233 12.8523 13.1966 12.4789C13.57 12.1056 13.9255 11.8745 14.4233 11.6807C14.7993 11.534 15.364 11.3607 16.404 11.3129C17.388 11.2685 17.7693 11.2552 19.7574 11.2529V11.2556ZM25.1289 14.3064C25.1289 13.5995 25.7022 13.0268 26.4089 13.0268V13.0264C27.1156 13.0264 27.6889 13.5997 27.6889 14.3064C27.6889 15.0131 27.1156 15.5864 26.4089 15.5864C25.7022 15.5864 25.1289 15.0131 25.1289 14.3064ZM20.7139 14.5225C17.6889 14.5226 15.2363 16.9752 15.2363 20.0003C15.2363 23.0254 17.689 25.477 20.7142 25.477C23.7393 25.477 26.1911 23.0254 26.1911 20.0003C26.1911 16.9752 23.7391 14.5225 20.7139 14.5225ZM24.2704 19.9999C24.2704 18.0361 22.6783 16.4443 20.7148 16.4443C18.751 16.4443 17.1592 18.0361 17.1592 19.9999C17.1592 21.9635 18.751 23.5555 20.7148 23.5555C22.6783 23.5555 24.2704 21.9635 24.2704 19.9999Z" fill="white"/>
</g>
<defs>
<linearGradient id="paint0_linear_205_2514" x1="14.0472" y1="-5" x2="22.3805" y2="48.8889" gradientUnits="userSpaceOnUse">
<stop stop-color="#4A68D6"/>
<stop offset="0.432292" stop-color="#A435B0"/>
<stop offset="0.651042" stop-color="#E7385E"/>
<stop offset="1" stop-color="#FFDC7F"/>
</linearGradient>
</defs>
</svg>
