<svg width="40" height="40" viewBox="0 0 40 40" fill="none" xmlns="http://www.w3.org/2000/svg">
<path d="M11.6667 33.3333H20M28.3333 33.3333H20M20 33.3333V28.3333M20 28.3333H6.66667C5.74619 28.3333 5 27.5872 5 26.6667V10C5 9.07954 5.74619 8.33334 6.66667 8.33334H33.3333C34.2538 8.33334 35 9.07954 35 10V26.6667C35 27.5872 34.2538 28.3333 33.3333 28.3333H20Z" stroke="#F19F00" stroke-width="3.33333"/>
<path d="M22.0367 16.9986C22.0367 18.0859 21.1411 18.9971 19.9996 18.9971V22.3304C22.9491 22.3304 25.37 19.9596 25.37 16.9986H22.0367ZM19.9996 18.9971C18.8581 18.9971 17.9626 18.0859 17.9626 16.9986H14.6292C14.6292 19.9596 17.0501 22.3304 19.9996 22.3304V18.9971ZM17.9626 16.9986C17.9626 15.9112 18.8581 15 19.9996 15V11.6667C17.0501 11.6667 14.6292 14.0375 14.6292 16.9986H17.9626ZM19.9996 15C21.1411 15 22.0367 15.9112 22.0367 16.9986H25.37C25.37 14.0375 22.9491 11.6667 19.9996 11.6667V15ZM19.9996 26.6667C21.9288 26.6667 23.5762 27.6194 24.503 29.1832L27.3705 27.4836C25.8317 24.8874 23.083 23.3334 19.9996 23.3334V26.6667ZM15.4962 29.1832C16.4231 27.6194 18.0704 26.6667 19.9996 26.6667V23.3334C16.9162 23.3334 14.1675 24.8874 12.6288 27.4836L15.4962 29.1832Z" fill="#F19F00"/>
</svg>
