<svg width="38" height="38" viewBox="0 0 38 38" fill="none" xmlns="http://www.w3.org/2000/svg">
<path d="M8.99967 2.33331H2.33301V8.99998M8.99967 2.33331V35.6666H2.33301V29M8.99967 2.33331H15.6663M15.6663 2.33331H22.333V8.99998M15.6663 2.33331V35.6666H22.333V29M2.33301 8.99998H22.333M2.33301 8.99998V15.6666M22.333 8.99998V15.6666V22.3333M2.33301 15.6666V22.3333M2.33301 15.6666H28.9997M2.33301 22.3333V29M2.33301 22.3333C8.7219 22.3333 21.6663 22.3333 22.333 22.3333M2.33301 29H22.333M28.9997 15.6666H35.6663V22.3333V29V35.6666H28.9997V29H22.333M28.9997 15.6666V10.6666M22.333 22.3333V29M28.9997 20.6666V24" stroke="white" stroke-width="3.33333"/>
</svg>
