<svg width="41" height="40" viewBox="0 0 41 40" fill="none" xmlns="http://www.w3.org/2000/svg">
<path d="M0.428711 20C0.428711 8.9543 9.38302 0 20.4287 0C31.4744 0 40.4287 8.9543 40.4287 20C40.4287 31.0457 31.4744 40 20.4287 40C9.38302 40 0.428711 31.0457 0.428711 20Z" fill="#4B8AD3"/>
<path d="M21.4746 26.5632C21.4746 26.5632 21.8596 26.5212 22.0568 26.3133C22.2373 26.1228 22.2311 25.7633 22.2311 25.7633C22.2311 25.7633 22.2071 24.0846 23.0011 23.8368C23.7837 23.593 24.7885 25.4602 25.8549 26.1781C26.6604 26.721 27.2718 26.6022 27.2718 26.6022L30.1214 26.5632C30.1214 26.5632 31.6114 26.4731 30.905 25.3229C30.8465 25.2287 30.4928 24.4718 28.7869 22.917C26.9995 21.2896 27.2395 21.5528 29.391 18.7372C30.7015 17.0227 31.2253 15.976 31.0615 15.5284C30.906 15.1003 29.9419 15.2139 29.9419 15.2139L26.7345 15.2334C26.7345 15.2334 26.4966 15.2017 26.3202 15.3051C26.1481 15.4065 26.0364 15.6431 26.0364 15.6431C26.0364 15.6431 25.5293 16.9694 24.8521 18.0981C23.4237 20.4784 22.853 20.6044 22.6192 20.4569C22.0756 20.1117 22.2113 19.0722 22.2113 18.3337C22.2113 16.0261 22.5681 15.0644 21.5174 14.8155C21.1689 14.7326 20.9122 14.6783 20.0201 14.6691C18.8755 14.6578 17.9072 14.6732 17.3583 14.9364C16.9931 15.1115 16.7114 15.5028 16.8836 15.5253C17.0954 15.553 17.5754 15.6523 17.83 15.9923C18.1586 16.4317 18.1472 17.417 18.1472 17.417C18.1472 17.417 18.336 20.1332 17.7058 20.4702C17.2738 20.7017 16.6812 20.2295 15.4072 18.0694C14.755 16.9633 14.2625 15.7404 14.2625 15.7404C14.2625 15.7404 14.1676 15.512 13.9975 15.3891C13.7919 15.2406 13.505 15.1945 13.505 15.1945L10.4572 15.2139C10.4572 15.2139 9.99914 15.2262 9.83115 15.4219C9.68194 15.595 9.81967 15.9545 9.81967 15.9545C9.81967 15.9545 12.206 21.435 14.9084 24.1973C17.3865 26.7292 20.1996 26.5632 20.1996 26.5632H21.4746Z" fill="white"/>
</svg>
